mtllib House.mtl
o Default
v -1.28 0 0.31997600555419925
v 0 0 -0.00002400000113993883
v -1.28 0 -0.00002400000113993883
v 0 0 0.31997600555419925
v 1.28 0 -0.00002400000113993883
v 1.28 0 0.31997600555419925
v 1.28 0 -0.3199920082092285
v 0 0 -0.3199920082092285
v -1.28 0 -0.3199920082092285
v -1.28 0 0.6399440002441407
v 0 0 0.6399440002441407
v -1.28 0 0.9599120330810547
v 0 0 0.9599120330810547
v 1.28 0 0.639911994934082
v 1.28 0 0.9599120330810547
v 0 0 -0.6399599838256836
v -1.28 0 -0.6399599838256836
v 1.28 0 -0.6399599838256836
v 1.28 0 -0.9599279785156251
v 0 0 -0.9599279785156251
v -1.28 0 -0.9599279785156251
v 2.56 0 -0.9599279785156251
v 2.56 0 -0.6399280166625977
v 2.56 0 -0.3199600028991699
v 2.56 0 0.000007999999797903002
v 2.56 0 0.31997600555419925
v 2.56 0 0.6399440002441407
v 2.56 0 0.9599120330810547
v 1.28 0 1.2798799896240234
v 2.56 0 1.2798799896240234
v 1.28 0 1.5998480224609375
v 2.56 0 1.5998480224609375
v 0 0 1.5998480224609375
v 0 0 1.2798480224609374
v -1.28 0 1.5998480224609375
v -1.28 0 1.2798480224609374
v -2.56 0 1.2798799896240234
v -2.56 0 0.9598799896240234
v -2.56 0 1.5998480224609375
v -2.56 0 0.639911994934082
v -2.56 0 0.31994400024414066
v -2.56 0 -0.00002400000113993883
v -2.56 0 -0.3199920082092285
v -2.56 0 -0.6399599838256836
v -2.56 0 -0.9599279785156251
v -1.28 0 -1.279896011352539
v -2.56 0 -1.279896011352539
v -1.28 0 -1.5998640441894532
v -2.56 0 -1.5998640441894532
v 0 0 -1.5998640441894532
v 0 0 -1.279863967895508
v 1.28 0 -1.5998640441894532
v 1.28 0 -1.279863967895508
v 2.56 0 -1.5998640441894532
v 2.56 0 -1.279863967895508
v -2.56 0 1.9198159790039062
v -1.28 0 1.9198159790039062
v 0 0 1.9198159790039062
v 1.28 0 1.9198159790039062
v 2.56 0 1.9198159790039062
v 1.28 0 2.239783935546875
v 2.56 0 2.239783935546875
v 0 0 2.239783935546875
v -1.28 0 2.239783935546875
v -2.56 0 2.239783935546875
v -1.28 0 -1.9198320007324219
v -2.56 0 -1.9198320007324219
v 0 0 -1.9198320007324219
v 1.28 0 -1.9198320007324219
v 2.56 0 -1.9198320007324219
v -1.28 0 -2.2397999572753906
v -2.56 0 -2.2397999572753906
v 1.28 0 -2.2397999572753906
v 0 0 -2.2397999572753906
v 2.56 0 -2.2397999572753906
v -2.56 0 2.5597520446777344
v -1.28 0 2.5597520446777344
v 0 0 2.5597520446777344
v 1.28 0 2.5597520446777344
v 2.56 0 2.5597520446777344
v 3.84 0 -2.240023956298828
v 3.84 0 -1.9200239562988282
v 3.84 0 -1.6000559997558594
v 3.84 0 -1.2800880432128907
v 3.84 0 -0.9601200103759766
v 3.84 0 -0.6401519775390625
v 3.84 0 -0.3201839828491211
v 3.84 0 -0.0002160000056028366
v 3.84 0 0.31972000122070315
v 3.84 0 0.6397200012207032
v 3.84 0 0.9596880340576172
v 3.84 0 1.279655990600586
v 3.84 0 1.5996240234375
v 3.84 0 1.9195919799804688
v 3.84 0 2.2395599365234378
v 3.84 0 2.559528045654297
v 2.56 0 2.879495849609375
v 3.84 0 2.879495849609375
v 1.28 0 2.879495849609375
v 0 0 2.879495849609375
v -1.28 0 2.879495849609375
v -2.56 0 2.879495849609375
v -2.56 0 3.1994641113281252
v -1.28 0 3.1994641113281252
v -2.56 0 3.5194320678710938
v -1.28 0 3.5194320678710938
v 0 0 3.199432067871094
v 0 0 3.5194320678710938
v 1.28 0 3.1994641113281252
v 1.28 0 3.5194320678710938
v 2.56 0 3.199432067871094
v 2.56 0 3.5194320678710938
v 3.84 0 3.199432067871094
v 3.84 0 3.5194320678710938
v 3.2 0 -2.24
v 3.84 2.24 -2.24
v 3.2 2.24 -2.24
v 2.56 2.24 -2.24
v 1.92 0 -2.24
v 1.92 2.24 -2.24
v 1.28 2.24 -2.24
v 0.64 0 -2.24
v 0.64 2.24 -2.24
v 0 2.24 -2.24
v -0.64 0 -2.24
v -0.64 2.24 -2.24
v -1.28 2.24 -2.24
v -1.92 0 -2.24
v -1.92 2.24 -2.24
v -2.56 2.24 -2.24
v 3.84 2.24 -1.6
v 3.84 2.24 -0.96
v 3.84 2.24 -0.32
v 3.84 2.24 0.32
v 3.84 2.24 0.96
v 3.84 2.24 1.6
v 3.84 2.24 2.24
v 3.84 2.24 2.88
v 3.84 2.24 3.52
v 3.2 2.24 3.52
v 3.2 0 3.52
v 1.92 2.24 3.52
v 2.56 2.24 3.52
v 1.92 0 3.52
v 1.28 2.24 3.52
v 0.64 2.24 3.52
v 0.64 0 3.52
v 0 2.24 3.52
v -0.64 2.24 3.52
v -0.64 0 3.52
v -1.28 2.24 3.52
v -1.92 2.24 3.52
v -1.92 0 3.52
v -2.56 2.24 3.52
v -2.56 2.24 2.88
v -2.56 2.24 2.24
v -2.56 2.24 1.6
v -2.56 2.24 0.96
v -2.56 2.24 0.32
v -2.56 2.24 -0.32
v -2.56 2.24 -0.96
v -2.56 2.24 -1.6
v -2.56 2.24 3.199975891113281
v -1.28 2.24 3.199975891113281
v 0 2.24 3.199975891113281
v 1.28 2.24 3.199975891113281
v 2.56 2.24 3.199975891113281
v 3.84 2.24 3.199975891113281
v 2.56 2.24 2.87994384765625
v 2.56 2.24 2.2398800659179687
v 3.84 2.24 2.559880065917969
v 2.56 2.24 2.559880065917969
v 2.56 2.24 1.2797840118408204
v 2.56 2.24 1.599783935546875
v 3.84 2.24 1.2797840118408204
v 2.56 2.24 0.6397200012207032
v 2.56 2.24 0.9597200012207031
v 3.84 2.24 0.6397200012207032
v 2.56 2.24 0.31968799591064456
v 2.56 2.24 -0.0003440000116825104
v 3.84 2.24 -0.0003440000116825104
v 2.56 2.24 -0.3203760147094727
v 2.56 2.24 -0.6404080200195312
v 3.84 2.24 -0.6404080200195312
v 2.56 2.24 -0.9604399871826172
v 2.56 2.24 -1.280471954345703
v 3.84 2.24 -1.280471954345703
v 2.56 2.24 -1.6005039978027344
v 3.84 2.24 1.9198159790039062
v 2.56 2.24 1.9198159790039062
v 2.56 2.24 -1.9205360412597656
v 3.84 2.24 -1.9205360412597656
v 1.28 2.24 -1.9205679321289062
v 0 2.24 -1.9205679321289062
v -1.28 2.24 -1.9205679321289062
v 0 2.24 -1.6005360412597656
v -1.28 2.24 -1.6005360412597656
v -2.56 2.24 -1.9205360412597656
v -1.28 2.24 -1.2805039978027344
v -2.56 2.24 -1.2805039978027344
v -1.28 2.24 -0.9604720306396485
v -1.28 2.24 -0.6404399871826172
v -2.56 2.24 -0.6404399871826172
v -1.28 2.24 -0.3204079818725586
v -1.28 2.24 -0.0003759999945759773
v -2.56 2.24 -0.0003759999945759773
v -1.28 2.24 0.31965599060058597
v -1.28 2.24 0.6396879959106445
v -2.56 2.24 0.6396879959106445
v -1.28 2.24 0.9597200012207031
v -1.28 2.24 1.279751968383789
v -2.56 2.24 1.279751968383789
v -1.28 2.24 1.599783935546875
v -1.28 2.24 1.9198159790039062
v -2.56 2.24 1.9198159790039062
v -1.28 2.24 2.2398480224609374
v -2.56 2.24 2.5599119567871096
v -1.28 2.24 2.879912109375
v -1.28 2.24 2.5599119567871096
v 0 2.24 2.879912109375
v 0 2.24 2.5599119567871096
v 0 2.24 2.2398800659179687
v 0 2.24 1.9198480224609376
v 0 2.24 1.5998159790039064
v 1.28 2.24 2.87994384765625
v 1.28 2.24 2.5599119567871096
v 1.28 2.24 1.9198480224609376
v 1.28 2.24 2.2398480224609374
v 1.28 2.24 1.5998159790039064
v 0 2.24 0.9597519683837891
v 1.28 2.24 1.279751968383789
v 0 2.24 1.279751968383789
v 1.28 2.24 0.9597519683837891
v 1.28 2.24 0.6397200012207032
v 0 2.24 0.31968799591064456
v 0 2.24 0.6396879959106445
v 1.28 2.24 0.31968799591064456
v 1.28 2.24 -0.0003440000116825104
v 1.28 2.24 -0.3203760147094727
v 1.28 2.24 -0.6404080200195312
v 1.28 2.24 -0.9604399871826172
v 1.28 2.24 -1.280471954345703
v 1.28 2.24 -1.6005039978027344
v 0 2.24 -1.2805039978027344
v 0 2.24 -0.9604399871826172
v 0 2.24 -0.6404399871826172
v 0 2.24 -0.3204079818725586
v 0 2.24 -0.0003759999945759773
vt 0 0.875
vt 0.5 1
vt 0 1
vt 0.5 0.875
vt 0.5 0.125
vt 0.75 1
vt 0.75 0.125
vn 0 1 0
vn 0 0 1
vn 0.00003743 -0.00001069 1
vn 0 0.0000893 1
vn 0.00031257 0 0.99999995
vn -0.00031257 0.0000893 0.99999995
vn -1 0 0
vn 0 0.00025354 -0.99999997
vn -0.00088739 0 -0.99999961
vn 0 0 -1
vn 0.00088739 0.00025354 -0.99999957
vn 1 0 0
vn 0 -1 0
g Scene
usemtl HouseTileset
f 1/1/1 2/2/1 3/3/1
f 1/1/1 4/4/1 2/2/1
f 4/1/1 5/2/1 2/3/1
f 4/1/1 6/4/1 5/2/1
f 2/1/1 7/2/1 8/3/1
f 2/1/1 5/4/1 7/2/1
f 3/1/1 8/2/1 9/3/1
f 3/1/1 2/4/1 8/2/1
f 10/1/1 4/2/1 1/3/1
f 10/1/1 11/4/1 4/2/1
f 12/1/1 11/2/1 10/3/1
f 12/1/1 13/4/1 11/2/1
f 13/1/1 14/2/1 11/3/1
f 13/1/1 15/4/1 14/2/1
f 11/1/1 6/2/1 4/3/1
f 11/1/1 14/4/1 6/2/1
f 9/1/1 16/2/1 17/3/1
f 9/1/1 8/4/1 16/2/1
f 8/1/1 18/2/1 16/3/1
f 8/1/1 7/4/1 18/2/1
f 16/1/1 19/2/1 20/3/1
f 16/1/1 18/4/1 19/2/1
f 17/1/1 20/2/1 21/3/1
f 17/1/1 16/4/1 20/2/1
f 18/1/1 22/2/1 19/3/1
f 18/1/1 23/4/1 22/2/1
f 7/1/1 23/2/1 18/3/1
f 7/1/1 24/4/1 23/2/1
f 5/1/1 24/2/1 7/3/1
f 5/1/1 25/4/1 24/2/1
f 6/1/1 25/2/1 5/3/1
f 6/1/1 26/4/1 25/2/1
f 14/1/1 26/2/1 6/3/1
f 14/1/1 27/4/1 26/2/1
f 15/1/1 27/2/1 14/3/1
f 15/1/1 28/4/1 27/2/1
f 29/1/1 28/2/1 15/3/1
f 29/1/1 30/4/1 28/2/1
f 31/1/1 30/2/1 29/3/1
f 31/1/1 32/4/1 30/2/1
f 33/1/1 29/2/1 34/3/1
f 33/1/1 31/4/1 29/2/1
f 35/1/1 34/2/1 36/3/1
f 35/1/1 33/4/1 34/2/1
f 36/1/1 13/2/1 12/3/1
f 36/1/1 34/4/1 13/2/1
f 34/1/1 15/2/1 13/3/1
f 34/1/1 29/4/1 15/2/1
f 37/1/1 12/2/1 38/3/1
f 37/1/1 36/4/1 12/2/1
f 39/1/1 36/2/1 37/3/1
f 39/1/1 35/4/1 36/2/1
f 38/1/1 10/2/1 40/3/1
f 38/1/1 12/4/1 10/2/1
f 40/1/1 1/2/1 41/3/1
f 40/1/1 10/4/1 1/2/1
f 41/1/1 3/2/1 42/3/1
f 41/1/1 1/4/1 3/2/1
f 42/1/1 9/2/1 43/3/1
f 42/1/1 3/4/1 9/2/1
f 43/1/1 17/2/1 44/3/1
f 43/1/1 9/4/1 17/2/1
f 44/1/1 21/2/1 45/3/1
f 44/1/1 17/4/1 21/2/1
f 45/1/1 46/2/1 47/3/1
f 45/1/1 21/4/1 46/2/1
f 47/1/1 48/2/1 49/3/1
f 47/1/1 46/4/1 48/2/1
f 46/1/1 50/2/1 48/3/1
f 46/1/1 51/4/1 50/2/1
f 51/1/1 52/2/1 50/3/1
f 51/1/1 53/4/1 52/2/1
f 53/1/1 54/2/1 52/3/1
f 53/1/1 55/4/1 54/2/1
f 19/1/1 55/2/1 53/3/1
f 19/1/1 22/4/1 55/2/1
f 20/1/1 53/2/1 51/3/1
f 20/1/1 19/4/1 53/2/1
f 21/1/1 51/2/1 46/3/1
f 21/1/1 20/4/1 51/2/1
f 56/1/1 35/2/1 39/3/1
f 56/1/1 57/4/1 35/2/1
f 57/1/1 33/2/1 35/3/1
f 57/1/1 58/4/1 33/2/1
f 58/1/1 31/2/1 33/3/1
f 58/1/1 59/4/1 31/2/1
f 59/1/1 32/2/1 31/3/1
f 59/1/1 60/4/1 32/2/1
f 61/1/1 60/2/1 59/3/1
f 61/1/1 62/4/1 60/2/1
f 63/1/1 59/2/1 58/3/1
f 63/1/1 61/4/1 59/2/1
f 64/1/1 58/2/1 57/3/1
f 64/1/1 63/4/1 58/2/1
f 65/1/1 57/2/1 56/3/1
f 65/1/1 64/4/1 57/2/1
f 49/1/1 66/2/1 67/3/1
f 49/1/1 48/4/1 66/2/1
f 48/1/1 68/2/1 66/3/1
f 48/1/1 50/4/1 68/2/1
f 50/1/1 69/2/1 68/3/1
f 50/1/1 52/4/1 69/2/1
f 52/1/1 70/2/1 69/3/1
f 52/1/1 54/4/1 70/2/1
f 67/1/1 71/2/1 72/3/1
f 67/1/1 66/4/1 71/2/1
f 68/1/1 73/2/1 74/3/1
f 68/1/1 69/4/1 73/2/1
f 69/1/1 75/2/1 73/3/1
f 69/1/1 70/4/1 75/2/1
f 66/1/1 74/2/1 71/3/1
f 66/1/1 68/4/1 74/2/1
f 76/1/1 64/2/1 65/3/1
f 76/1/1 77/4/1 64/2/1
f 77/1/1 63/2/1 64/3/1
f 77/1/1 78/4/1 63/2/1
f 78/1/1 61/2/1 63/3/1
f 78/1/1 79/4/1 61/2/1
f 79/1/1 62/2/1 61/3/1
f 79/1/1 80/4/1 62/2/1
f 70/1/1 81/2/1 75/3/1
f 70/1/1 82/4/1 81/2/1
f 54/1/1 82/2/1 70/3/1
f 54/1/1 83/4/1 82/2/1
f 55/1/1 83/2/1 54/3/1
f 55/1/1 84/4/1 83/2/1
f 22/1/1 84/2/1 55/3/1
f 22/1/1 85/4/1 84/2/1
f 23/1/1 85/2/1 22/3/1
f 23/1/1 86/4/1 85/2/1
f 24/1/1 86/2/1 23/3/1
f 24/1/1 87/4/1 86/2/1
f 25/1/1 87/2/1 24/3/1
f 25/1/1 88/4/1 87/2/1
f 27/1/1 89/2/1 26/3/1
f 27/1/1 90/4/1 89/2/1
f 28/1/1 90/2/1 27/3/1
f 28/1/1 91/4/1 90/2/1
f 30/1/1 91/2/1 28/3/1
f 30/1/1 92/4/1 91/2/1
f 32/1/1 92/2/1 30/3/1
f 32/1/1 93/4/1 92/2/1
f 60/1/1 93/2/1 32/3/1
f 60/1/1 94/4/1 93/2/1
f 62/1/1 94/2/1 60/3/1
f 62/1/1 95/4/1 94/2/1
f 26/1/1 88/2/1 25/3/1
f 26/1/1 89/4/1 88/2/1
f 80/1/1 95/2/1 62/3/1
f 80/1/1 96/4/1 95/2/1
f 97/1/1 96/2/1 80/3/1
f 97/1/1 98/4/1 96/2/1
f 99/1/1 80/2/1 79/3/1
f 99/1/1 97/4/1 80/2/1
f 100/1/1 79/2/1 78/3/1
f 100/1/1 99/4/1 79/2/1
f 101/1/1 78/2/1 77/3/1
f 101/1/1 100/4/1 78/2/1
f 102/1/1 77/2/1 76/3/1
f 102/1/1 101/4/1 77/2/1
f 103/1/1 101/2/1 102/3/1
f 103/1/1 104/4/1 101/2/1
f 105/1/1 104/2/1 103/3/1
f 105/1/1 106/4/1 104/2/1
f 106/1/1 107/2/1 104/3/1
f 106/1/1 108/4/1 107/2/1
f 104/1/1 100/2/1 101/3/1
f 104/1/1 107/4/1 100/2/1
f 107/1/1 99/2/1 100/3/1
f 107/1/1 109/4/1 99/2/1
f 108/1/1 109/2/1 107/3/1
f 108/1/1 110/4/1 109/2/1
f 110/1/1 111/2/1 109/3/1
f 110/1/1 112/4/1 111/2/1
f 109/1/1 97/2/1 99/3/1
f 109/1/1 111/4/1 97/2/1
f 112/1/1 113/2/1 111/3/1
f 112/1/1 114/4/1 113/2/1
f 111/1/1 98/2/1 97/3/1
f 111/1/1 113/4/1 98/2/1
f 115/5/2 116/6/2 117/2/2
f 115/5/3 81/7/3 116/6/3
f 75/5/4 117/6/4 118/2/4
f 75/5/5 115/7/5 117/6/5
f 119/5/2 118/6/2 120/2/2
f 119/5/6 75/7/6 118/6/6
f 73/5/4 120/6/4 121/2/4
f 73/5/5 119/7/5 120/6/5
f 122/5/2 121/6/2 123/2/2
f 122/5/6 73/7/6 121/6/6
f 74/5/4 123/6/4 124/2/4
f 74/5/5 122/7/5 123/6/5
f 125/5/2 124/6/2 126/2/2
f 125/5/6 74/7/6 124/6/6
f 71/5/4 126/6/4 127/2/4
f 71/5/5 125/7/5 126/6/5
f 128/5/2 127/6/2 129/2/2
f 128/5/6 71/7/6 127/6/6
f 72/5/4 129/6/4 130/2/4
f 72/5/5 128/7/5 129/6/5
f 81/5/7 131/6/7 116/2/7
f 81/5/7 83/7/7 131/6/7
f 83/5/7 132/6/7 131/2/7
f 83/5/7 85/7/7 132/6/7
f 85/5/7 133/6/7 132/2/7
f 85/5/7 87/7/7 133/6/7
f 87/5/7 134/6/7 133/2/7
f 87/5/7 89/7/7 134/6/7
f 89/5/7 135/6/7 134/2/7
f 89/5/7 91/7/7 135/6/7
f 91/5/7 136/6/7 135/2/7
f 91/5/7 93/7/7 136/6/7
f 93/5/7 137/6/7 136/2/7
f 93/5/7 95/7/7 137/6/7
f 95/5/7 138/6/7 137/2/7
f 95/5/7 98/7/7 138/6/7
f 98/5/7 139/6/7 138/2/7
f 98/5/7 114/7/7 139/6/7
f 114/5/8 140/6/8 139/2/8
f 114/5/9 141/7/9 140/6/9
f 112/5/8 142/6/8 143/2/8
f 112/5/9 144/7/9 142/6/9
f 144/5/10 145/6/10 142/2/10
f 144/5/11 110/7/11 145/6/11
f 110/5/8 146/6/8 145/2/8
f 110/5/9 147/7/9 146/6/9
f 147/5/10 148/6/10 146/2/10
f 147/5/11 108/7/11 148/6/11
f 108/5/8 149/6/8 148/2/8
f 108/5/9 150/7/9 149/6/9
f 150/5/10 151/6/10 149/2/10
f 150/5/11 106/7/11 151/6/11
f 106/5/8 152/6/8 151/2/8
f 106/5/9 153/7/9 152/6/9
f 141/5/10 143/6/10 140/2/10
f 141/5/11 112/7/11 143/6/11
f 153/5/10 154/6/10 152/2/10
f 153/5/11 105/7/11 154/6/11
f 105/5/12 155/6/12 154/2/12
f 105/5/12 102/7/12 155/6/12
f 102/5/12 156/6/12 155/2/12
f 102/5/12 65/7/12 156/6/12
f 65/5/12 157/6/12 156/2/12
f 65/5/12 39/7/12 157/6/12
f 39/5/12 158/6/12 157/2/12
f 39/5/12 38/7/12 158/6/12
f 38/5/12 159/6/12 158/2/12
f 38/5/12 41/7/12 159/6/12
f 41/5/12 160/6/12 159/2/12
f 41/5/12 43/7/12 160/6/12
f 43/5/12 161/6/12 160/2/12
f 43/5/12 45/7/12 161/6/12
f 45/5/12 162/6/12 161/2/12
f 45/5/12 49/7/12 162/6/12
f 49/5/12 130/6/12 162/2/12
f 49/5/12 72/7/12 130/6/12
f 163/1/13 151/2/13 154/3/13
f 163/1/13 164/4/13 151/2/13
f 164/1/13 148/2/13 151/3/13
f 164/1/13 165/4/13 148/2/13
f 165/1/13 145/2/13 148/3/13
f 165/1/13 166/4/13 145/2/13
f 166/1/13 143/2/13 145/3/13
f 166/1/13 167/4/13 143/2/13
f 167/1/13 139/2/13 143/3/13
f 167/1/13 168/4/13 139/2/13
f 169/1/13 168/2/13 167/3/13
f 169/1/13 138/4/13 168/2/13
f 170/1/13 171/2/13 172/3/13
f 170/1/13 137/4/13 171/2/13
f 173/1/13 136/2/13 174/3/13
f 173/1/13 175/4/13 136/2/13
f 176/1/13 135/2/13 177/3/13
f 176/1/13 178/4/13 135/2/13
f 179/1/13 178/2/13 176/3/13
f 179/1/13 134/4/13 178/2/13
f 180/1/13 134/2/13 179/3/13
f 180/1/13 181/4/13 134/2/13
f 182/1/13 181/2/13 180/3/13
f 182/1/13 133/4/13 181/2/13
f 183/1/13 133/2/13 182/3/13
f 183/1/13 184/4/13 133/2/13
f 185/1/13 184/2/13 183/3/13
f 185/1/13 132/4/13 184/2/13
f 186/1/13 132/2/13 185/3/13
f 186/1/13 187/4/13 132/2/13
f 188/1/13 187/2/13 186/3/13
f 188/1/13 131/4/13 187/2/13
f 177/1/13 175/2/13 173/3/13
f 177/1/13 135/4/13 175/2/13
f 174/1/13 189/2/13 190/3/13
f 174/1/13 136/4/13 189/2/13
f 190/1/13 137/2/13 170/3/13
f 190/1/13 189/4/13 137/2/13
f 172/1/13 138/2/13 169/3/13
f 172/1/13 171/4/13 138/2/13
f 191/1/13 131/2/13 188/3/13
f 191/1/13 192/4/13 131/2/13
f 118/1/13 192/2/13 191/3/13
f 118/1/13 116/4/13 192/2/13
f 121/1/13 191/2/13 193/3/13
f 121/1/13 118/4/13 191/2/13
f 124/1/13 193/2/13 194/3/13
f 124/1/13 121/4/13 193/2/13
f 127/1/13 194/2/13 195/3/13
f 127/1/13 124/4/13 194/2/13
f 195/1/13 196/2/13 197/3/13
f 195/1/13 194/4/13 196/2/13
f 198/1/13 197/2/13 162/3/13
f 198/1/13 195/4/13 197/2/13
f 162/1/13 199/2/13 200/3/13
f 162/1/13 197/4/13 199/2/13
f 200/1/13 201/2/13 161/3/13
f 200/1/13 199/4/13 201/2/13
f 130/1/13 195/2/13 198/3/13
f 130/1/13 127/4/13 195/2/13
f 161/1/13 202/2/13 203/3/13
f 161/1/13 201/4/13 202/2/13
f 203/1/13 204/2/13 160/3/13
f 203/1/13 202/4/13 204/2/13
f 160/1/13 205/2/13 206/3/13
f 160/1/13 204/4/13 205/2/13
f 206/1/13 207/2/13 159/3/13
f 206/1/13 205/4/13 207/2/13
f 159/1/13 208/2/13 209/3/13
f 159/1/13 207/4/13 208/2/13
f 209/1/13 210/2/13 158/3/13
f 209/1/13 208/4/13 210/2/13
f 158/1/13 211/2/13 212/3/13
f 158/1/13 210/4/13 211/2/13
f 212/1/13 213/2/13 157/3/13
f 212/1/13 211/4/13 213/2/13
f 157/1/13 214/2/13 215/3/13
f 157/1/13 213/4/13 214/2/13
f 215/1/13 216/2/13 156/3/13
f 215/1/13 214/4/13 216/2/13
f 217/1/13 218/2/13 155/3/13
f 217/1/13 219/4/13 218/2/13
f 155/1/13 164/2/13 163/3/13
f 155/1/13 218/4/13 164/2/13
f 156/1/13 219/2/13 217/3/13
f 156/1/13 216/4/13 219/2/13
f 219/1/13 220/2/13 218/3/13
f 219/1/13 221/4/13 220/2/13
f 216/1/13 221/2/13 219/3/13
f 216/1/13 222/4/13 221/2/13
f 214/1/13 222/2/13 216/3/13
f 214/1/13 223/4/13 222/2/13
f 213/1/13 223/2/13 214/3/13
f 213/1/13 224/4/13 223/2/13
f 218/1/13 165/2/13 164/3/13
f 218/1/13 220/4/13 165/2/13
f 220/1/13 166/2/13 165/3/13
f 220/1/13 225/4/13 166/2/13
f 225/1/13 167/2/13 166/3/13
f 225/1/13 169/4/13 167/2/13
f 226/1/13 169/2/13 225/3/13
f 226/1/13 172/4/13 169/2/13
f 227/1/13 170/2/13 228/3/13
f 227/1/13 190/4/13 170/2/13
f 223/1/13 228/2/13 222/3/13
f 223/1/13 227/4/13 228/2/13
f 222/1/13 226/2/13 221/3/13
f 222/1/13 228/4/13 226/2/13
f 228/1/13 172/2/13 226/3/13
f 228/1/13 170/4/13 172/2/13
f 229/1/13 190/2/13 227/3/13
f 229/1/13 174/4/13 190/2/13
f 221/1/13 225/2/13 220/3/13
f 221/1/13 226/4/13 225/2/13
f 230/1/13 231/2/13 232/3/13
f 230/1/13 233/4/13 231/2/13
f 234/1/13 177/2/13 233/3/13
f 234/1/13 176/4/13 177/2/13
f 235/1/13 234/2/13 236/3/13
f 235/1/13 237/4/13 234/2/13
f 236/1/13 233/2/13 230/3/13
f 236/1/13 234/4/13 233/2/13
f 232/1/13 229/2/13 224/3/13
f 232/1/13 231/4/13 229/2/13
f 224/1/13 227/2/13 223/3/13
f 224/1/13 229/4/13 227/2/13
f 233/1/13 173/2/13 231/3/13
f 233/1/13 177/4/13 173/2/13
f 237/1/13 176/2/13 234/3/13
f 237/1/13 179/4/13 176/2/13
f 238/1/13 179/2/13 237/3/13
f 238/1/13 180/4/13 179/2/13
f 239/1/13 180/2/13 238/3/13
f 239/1/13 182/4/13 180/2/13
f 240/1/13 182/2/13 239/3/13
f 240/1/13 183/4/13 182/2/13
f 241/1/13 183/2/13 240/3/13
f 241/1/13 185/4/13 183/2/13
f 242/1/13 185/2/13 241/3/13
f 242/1/13 186/4/13 185/2/13
f 243/1/13 186/2/13 242/3/13
f 243/1/13 188/4/13 186/2/13
f 193/1/13 188/2/13 243/3/13
f 193/1/13 191/4/13 188/2/13
f 194/1/13 243/2/13 196/3/13
f 194/1/13 193/4/13 243/2/13
f 196/1/13 242/2/13 244/3/13
f 196/1/13 243/4/13 242/2/13
f 245/1/13 240/2/13 246/3/13
f 245/1/13 241/4/13 240/2/13
f 246/1/13 239/2/13 247/3/13
f 246/1/13 240/4/13 239/2/13
f 247/1/13 238/2/13 248/3/13
f 247/1/13 239/4/13 238/2/13
f 248/1/13 237/2/13 235/3/13
f 248/1/13 238/4/13 237/2/13
f 231/1/13 174/2/13 229/3/13
f 231/1/13 173/4/13 174/2/13
f 210/1/13 232/2/13 211/3/13
f 210/1/13 230/4/13 232/2/13
f 208/1/13 230/2/13 210/3/13
f 208/1/13 236/4/13 230/2/13
f 207/1/13 236/2/13 208/3/13
f 207/1/13 235/4/13 236/2/13
f 205/1/13 235/2/13 207/3/13
f 205/1/13 248/4/13 235/2/13
f 204/1/13 248/2/13 205/3/13
f 204/1/13 247/4/13 248/2/13
f 202/1/13 247/2/13 204/3/13
f 202/1/13 246/4/13 247/2/13
f 199/1/13 245/2/13 201/3/13
f 199/1/13 244/4/13 245/2/13
f 197/1/13 244/2/13 199/3/13
f 197/1/13 196/4/13 244/2/13
f 244/1/13 241/2/13 245/3/13
f 244/1/13 242/4/13 241/2/13
f 201/1/13 246/2/13 202/3/13
f 201/1/13 245/4/13 246/2/13
f 211/1/13 224/2/13 213/3/13
f 211/1/13 232/4/13 224/2/13
