mtllib House.mtl
o Default
v -1.28 0 0.31997600555419925
v 0 0 -0.00002400000113993883
v -1.28 0 -0.00002400000113993883
v 0 0 0.31997600555419925
v 1.28 0 -0.00002400000113993883
v 1.28 0 0.31997600555419925
v 1.28 0 -0.3199920082092285
v 0 0 -0.3199920082092285
v -1.28 0 -0.3199920082092285
v -1.28 0 0.6399440002441407
v 0 0 0.6399440002441407
v -1.28 0 0.9599120330810547
v 0 0 0.9599120330810547
v 1.28 0 0.639911994934082
v 1.28 0 0.9599120330810547
v 0 0 -0.6399599838256836
v -1.28 0 -0.6399599838256836
v 1.28 0 -0.6399599838256836
v 1.28 0 -0.9599279785156251
v 0 0 -0.9599279785156251
v -1.28 0 -0.9599279785156251
v 2.56 0 -0.9599279785156251
v 2.56 0 -0.6399280166625977
v 2.56 0 -0.3199600028991699
v 2.56 0 0.000007999999797903002
v 2.56 0 0.31997600555419925
v 2.56 0 0.6399440002441407
v 2.56 0 0.9599120330810547
v 1.28 0 1.2798799896240234
v 2.56 0 1.2798799896240234
v 1.28 0 1.5998480224609375
v 2.56 0 1.5998480224609375
v 0 0 1.5998480224609375
v 0 0 1.2798480224609374
v -1.28 0 1.5998480224609375
v -1.28 0 1.2798480224609374
v -2.56 0 1.2798799896240234
v -2.56 0 0.9598799896240234
v -2.56 0 1.5998480224609375
v -2.56 0 0.639911994934082
v -2.56 0 0.31994400024414066
v -2.56 0 -0.00002400000113993883
v -2.56 0 -0.3199920082092285
v -2.56 0 -0.6399599838256836
v -2.56 0 -0.9599279785156251
v -1.28 0 -1.279896011352539
v -2.56 0 -1.279896011352539
v -1.28 0 -1.5998640441894532
v -2.56 0 -1.5998640441894532
v 0 0 -1.5998640441894532
v 0 0 -1.279863967895508
v 1.28 0 -1.5998640441894532
v 1.28 0 -1.279863967895508
v 2.56 0 -1.5998640441894532
v 2.56 0 -1.279863967895508
v -2.56 0 1.9198159790039062
v -1.28 0 1.9198159790039062
v 0 0 1.9198159790039062
v 1.28 0 1.9198159790039062
v 2.56 0 1.9198159790039062
v 1.28 0 2.239783935546875
v 2.56 0 2.239783935546875
v 0 0 2.239783935546875
v -1.28 0 2.239783935546875
v -2.56 0 2.239783935546875
v -1.28 0 -1.9198320007324219
v -2.56 0 -1.9198320007324219
v 0 0 -1.9198320007324219
v 1.28 0 -1.9198320007324219
v 2.56 0 -1.9198320007324219
v -1.28 0 -2.2397999572753906
v -2.56 0 -2.2397999572753906
v 1.28 0 -2.2397999572753906
v 0 0 -2.2397999572753906
v 2.56 0 -2.2397999572753906
v -2.56 0 2.5597520446777344
v -1.28 0 2.5597520446777344
v 0 0 2.5597520446777344
v 1.28 0 2.5597520446777344
v 2.56 0 2.5597520446777344
v 3.84 0 -2.240023956298828
v 3.84 0 -1.9200239562988282
v 3.84 0 -1.6000559997558594
v 3.84 0 -1.2800880432128907
v 3.84 0 -0.9601200103759766
v 3.84 0 -0.6401519775390625
v 3.84 0 -0.3201839828491211
v 3.84 0 -0.0002160000056028366
v 3.84 0 0.31972000122070315
v 3.84 0 0.6397200012207032
v 3.84 0 0.9596880340576172
v 3.84 0 1.279655990600586
v 3.84 0 1.5996240234375
v 3.84 0 1.9195919799804688
v 3.84 0 2.2395599365234378
v 3.84 0 2.559528045654297
v 2.56 0 2.879495849609375
v 3.84 0 2.879495849609375
v 1.28 0 2.879495849609375
v 0 0 2.879495849609375
v -1.28 0 2.879495849609375
v -2.56 0 2.879495849609375
v -2.56 0 3.1994641113281252
v -1.28 0 3.1994641113281252
v -2.56 0 3.5194320678710938
v -1.28 0 3.5194320678710938
v 0 0 3.199432067871094
v 0 0 3.5194320678710938
v 1.28 0 3.1994641113281252
v 1.28 0 3.5194320678710938
v 2.56 0 3.199432067871094
v 2.56 0 3.5194320678710938
v 3.84 0 3.199432067871094
v 3.84 0 3.5194320678710938
v -1.92 0 3.52
v -2.56 1.28 3.52
v -1.92 1.28 3.52
v -1.28 1.28 3.52
v -0.64 0 3.52
v -0.64 1.28 3.52
v 0 1.28 3.52
v 0.64 0 3.52
v 0.64 1.28 3.52
v 1.28 1.28 3.52
v 1.92 0 3.52
v 1.92 1.28 3.52
v 2.56 1.28 3.52
v 3.2 0 3.52
v 3.2 1.28 3.52
v 3.84 1.28 3.52
v 3.2 0.96 -2.24
v 3.84 1.92 -2.24
v 3.2 1.92 -2.24
v 3.84 0.96 -2.24
v 2.56 0.96 -2.24
v 2.56 1.92 -2.24
v 1.92 0.96 -2.24
v 1.92 1.92 -2.24
v 1.28 0.96 -2.24
v 1.28 1.92 -2.24
v 0.64 0.96 -2.24
v 0.64 1.92 -2.24
v 0 0.96 -2.24
v 0 1.92 -2.24
v -0.64 0.96 -2.24
v -0.64 1.92 -2.24
v -1.28 0.96 -2.24
v -1.28 1.92 -2.24
v -1.92 0.96 -2.24
v -1.92 1.92 -2.24
v -2.56 0.64 -1.6
v -2.56 1.28 -2.24
v -2.56 1.28 -1.6
v -2.56 0.64 -2.24
v -2.56 1.28 2.88
v -2.56 1.92 2.24
v -2.56 1.92 2.88
v -2.56 1.28 2.24
v -2.56 1.92 1.6
v -2.56 1.28 1.6
v -2.56 1.92 0.96
v -2.56 1.28 0.96
v -2.56 1.92 0.32
v -2.56 1.28 0.32
v -2.56 1.92 -0.32
v -2.56 1.28 -0.32
v -2.56 1.92 -0.96
v -2.56 1.28 -0.96
v -2.56 1.92 -1.6
v -2.56 1.92 3.52
v -2.56 1.92 -2.24
v 1.92 0 -2.24
v 0.64 0 -2.24
v 3.2 1.92 3.52
v 3.84 1.92 3.52
v -0.64 0 -2.24
v 3.2 0 -2.24
v -1.28 1.92 3.52
v -0.64 1.92 3.52
v -2.56 0.64 -0.32
v -2.56 0.64 -0.96
v -1.92 1.92 3.52
v 3.84 1.28 2.88
v 3.84 1.28 2.24
v 3.84 1.28 1.6
v 3.84 1.28 0.96
v 3.84 1.28 0.32
v 3.84 1.28 -0.32
v 0 1.92 3.52
v 0.64 1.92 3.52
v 1.28 1.92 3.52
v 3.84 1.28 -0.96
v 3.84 1.28 -1.6
v 3.84 1.28 -2.24
v 1.92 1.92 3.52
v 3.84 1.92 -0.32
v 3.84 1.92 -0.96
v 3.84 1.92 2.88
v 3.84 1.92 2.24
v 3.84 1.92 1.6
v 3.84 1.92 0.96
v 3.84 1.92 0.32
v 2.56 1.92 3.52
v -1.92 0 -2.24
v -2.56 0.96 -2.24
v 3.84 1.92 -1.6
v -2.56 0.64 0.32
v -2.56 0.64 2.24
v -2.56 0.64 2.88
v -2.56 0.64 3.52
v -2.56 0.64 1.6
v -2.56 0.64 0.96
v 3.84 1.92 -1.9199920654296876
v 2.56 1.92 -1.9199920654296876
v 2.56 1.92 -1.5999600219726562
v 3.84 1.92 -1.279927978515625
v 2.56 1.92 -1.279927978515625
v 2.56 1.92 -0.9598960113525391
v 3.84 1.92 -0.6398640060424805
v 2.56 1.92 -0.6398640060424805
v 2.56 1.92 -0.3198320007324219
v 3.84 1.92 0.00019999999552965166
v 2.56 1.92 0.00019999999552965166
v 2.56 1.92 0.32023200988769535
v 3.84 1.92 0.6402639770507813
v 2.56 1.92 0.6402639770507813
v 2.56 1.92 0.9602960205078125
v 3.84 1.92 1.2803280639648438
v 2.56 1.92 1.2803280639648438
v 2.56 1.92 1.6003599548339844
v 3.84 1.92 1.9203919982910156
v 2.56 1.92 1.9203919982910156
v 2.56 1.92 2.2404240417480468
v 3.84 1.92 2.5604559326171876
v 2.56 1.92 2.5604559326171876
v 2.56 1.92 2.880487976074219
v 3.84 1.92 3.20052001953125
v 2.56 1.92 3.20052001953125
v 1.28 1.92 3.2005520629882813
v 0 1.92 3.2005520629882813
v -1.28 1.92 3.2005520629882813
v -2.56 1.92 3.2005520629882813
v -1.28 1.92 2.88052001953125
v -1.28 1.92 2.5604559326171876
v -2.56 1.92 2.5604559326171876
v -1.28 1.92 2.2404559326171873
v -2.56 1.92 1.920424041748047
v -1.28 1.92 1.920424041748047
v -2.56 1.92 1.2803599548339843
v -1.28 1.92 1.6003599548339844
v -1.28 1.92 1.2803599548339843
v -1.28 1.92 0.9603279876708984
v -2.56 1.92 0.6402960205078125
v -1.28 1.92 0.6402960205078125
v -1.28 1.92 0.32026401519775394
v -2.56 1.92 0.0002319999970495701
v -1.28 1.92 0.0002319999970495701
v -1.28 1.92 -0.3197999954223633
v 0 1.92 2.880487976074219
v 0 1.92 2.560487976074219
v 1.28 1.92 2.88052001953125
v 1.28 1.92 2.560487976074219
v 0 1.92 2.2404559326171873
v 1.28 1.92 2.2404559326171873
v 0 1.92 1.920424041748047
v 0 1.92 1.6003919982910157
v 1.28 1.92 1.920424041748047
v 1.28 1.92 1.6003919982910157
v 1.28 1.92 1.2803599548339843
v 1.28 1.92 0.6402960205078125
v 1.28 1.92 0.9602960205078125
v 1.28 1.92 0.32026401519775394
v 1.28 1.92 0.0002319999970495701
v 1.28 1.92 -0.3197999954223633
v 1.28 1.92 -0.6398320007324219
v 1.28 1.92 -0.9598639678955079
v 1.28 1.92 -1.279896011352539
v 1.28 1.92 -1.599927978515625
v 1.28 1.92 -1.9199600219726562
v 0 1.92 -1.9199920654296876
v 0 1.92 -1.5999600219726562
v -1.28 1.92 -1.9199600219726562
v -1.28 1.92 -1.5999600219726562
v -2.56 1.92 -1.9199600219726562
v 0 1.92 -1.279927978515625
v -1.28 1.92 -1.279927978515625
v -2.56 1.92 -1.279927978515625
v -1.28 1.92 -0.9598960113525391
v -1.28 1.92 -0.6398640060424805
v -2.56 1.92 -0.6398640060424805
v 0 1.92 -0.3198320007324219
v 0 1.92 -0.6398320007324219
v 0 1.92 0.00019999999552965166
v 0 1.92 0.6402639770507813
v 0 1.92 0.32026401519775394
v 0 1.92 0.9602960205078125
v 0 1.92 1.2803280639648438
v 0 1.92 -0.9598639678955079
vt 0 0.875
vt 0.5 1
vt 0 1
vt 0.5 0.875
vt 0.5 0.125
vt 0.75 0.625
vt 0.5 0.625
vt 0.75 0.125
vt 0.75 1
vt 0.5 0.375
vt 0.75 0.375
vt 0.5 0.75
vt 0.75 0.75
vt 0.75 0.5
vt 0.5 0.5
vn 0 1 0
vn 0 0 -1
vn 0.00088739 0.0004437 -0.99999951
vn 0 0.0004437 -0.9999999
vn -0.00088739 0 -0.99999961
vn 0 0 1
vn 1 0 0
vn -0.00031257 0.00020838 0.99999993
vn 0 0.00020838 0.99999998
vn 0.00031257 0 0.99999995
vn 0.00003743 -0.00002495 1
vn -1 0 0
vn 0 -1 0
g Scene
usemtl HouseTileset
f 1/1/1 2/2/1 3/3/1
f 1/1/1 4/4/1 2/2/1
f 4/1/1 5/2/1 2/3/1
f 4/1/1 6/4/1 5/2/1
f 2/1/1 7/2/1 8/3/1
f 2/1/1 5/4/1 7/2/1
f 3/1/1 8/2/1 9/3/1
f 3/1/1 2/4/1 8/2/1
f 10/1/1 4/2/1 1/3/1
f 10/1/1 11/4/1 4/2/1
f 12/1/1 11/2/1 10/3/1
f 12/1/1 13/4/1 11/2/1
f 13/1/1 14/2/1 11/3/1
f 13/1/1 15/4/1 14/2/1
f 11/1/1 6/2/1 4/3/1
f 11/1/1 14/4/1 6/2/1
f 9/1/1 16/2/1 17/3/1
f 9/1/1 8/4/1 16/2/1
f 8/1/1 18/2/1 16/3/1
f 8/1/1 7/4/1 18/2/1
f 16/1/1 19/2/1 20/3/1
f 16/1/1 18/4/1 19/2/1
f 17/1/1 20/2/1 21/3/1
f 17/1/1 16/4/1 20/2/1
f 18/1/1 22/2/1 19/3/1
f 18/1/1 23/4/1 22/2/1
f 7/1/1 23/2/1 18/3/1
f 7/1/1 24/4/1 23/2/1
f 5/1/1 24/2/1 7/3/1
f 5/1/1 25/4/1 24/2/1
f 6/1/1 25/2/1 5/3/1
f 6/1/1 26/4/1 25/2/1
f 14/1/1 26/2/1 6/3/1
f 14/1/1 27/4/1 26/2/1
f 15/1/1 27/2/1 14/3/1
f 15/1/1 28/4/1 27/2/1
f 29/1/1 28/2/1 15/3/1
f 29/1/1 30/4/1 28/2/1
f 31/1/1 30/2/1 29/3/1
f 31/1/1 32/4/1 30/2/1
f 33/1/1 29/2/1 34/3/1
f 33/1/1 31/4/1 29/2/1
f 35/1/1 34/2/1 36/3/1
f 35/1/1 33/4/1 34/2/1
f 36/1/1 13/2/1 12/3/1
f 36/1/1 34/4/1 13/2/1
f 34/1/1 15/2/1 13/3/1
f 34/1/1 29/4/1 15/2/1
f 37/1/1 12/2/1 38/3/1
f 37/1/1 36/4/1 12/2/1
f 39/1/1 36/2/1 37/3/1
f 39/1/1 35/4/1 36/2/1
f 38/1/1 10/2/1 40/3/1
f 38/1/1 12/4/1 10/2/1
f 40/1/1 1/2/1 41/3/1
f 40/1/1 10/4/1 1/2/1
f 41/1/1 3/2/1 42/3/1
f 41/1/1 1/4/1 3/2/1
f 42/1/1 9/2/1 43/3/1
f 42/1/1 3/4/1 9/2/1
f 43/1/1 17/2/1 44/3/1
f 43/1/1 9/4/1 17/2/1
f 44/1/1 21/2/1 45/3/1
f 44/1/1 17/4/1 21/2/1
f 45/1/1 46/2/1 47/3/1
f 45/1/1 21/4/1 46/2/1
f 47/1/1 48/2/1 49/3/1
f 47/1/1 46/4/1 48/2/1
f 46/1/1 50/2/1 48/3/1
f 46/1/1 51/4/1 50/2/1
f 51/1/1 52/2/1 50/3/1
f 51/1/1 53/4/1 52/2/1
f 53/1/1 54/2/1 52/3/1
f 53/1/1 55/4/1 54/2/1
f 19/1/1 55/2/1 53/3/1
f 19/1/1 22/4/1 55/2/1
f 20/1/1 53/2/1 51/3/1
f 20/1/1 19/4/1 53/2/1
f 21/1/1 51/2/1 46/3/1
f 21/1/1 20/4/1 51/2/1
f 56/1/1 35/2/1 39/3/1
f 56/1/1 57/4/1 35/2/1
f 57/1/1 33/2/1 35/3/1
f 57/1/1 58/4/1 33/2/1
f 58/1/1 31/2/1 33/3/1
f 58/1/1 59/4/1 31/2/1
f 59/1/1 32/2/1 31/3/1
f 59/1/1 60/4/1 32/2/1
f 61/1/1 60/2/1 59/3/1
f 61/1/1 62/4/1 60/2/1
f 63/1/1 59/2/1 58/3/1
f 63/1/1 61/4/1 59/2/1
f 64/1/1 58/2/1 57/3/1
f 64/1/1 63/4/1 58/2/1
f 65/1/1 57/2/1 56/3/1
f 65/1/1 64/4/1 57/2/1
f 49/1/1 66/2/1 67/3/1
f 49/1/1 48/4/1 66/2/1
f 48/1/1 68/2/1 66/3/1
f 48/1/1 50/4/1 68/2/1
f 50/1/1 69/2/1 68/3/1
f 50/1/1 52/4/1 69/2/1
f 52/1/1 70/2/1 69/3/1
f 52/1/1 54/4/1 70/2/1
f 67/1/1 71/2/1 72/3/1
f 67/1/1 66/4/1 71/2/1
f 68/1/1 73/2/1 74/3/1
f 68/1/1 69/4/1 73/2/1
f 69/1/1 75/2/1 73/3/1
f 69/1/1 70/4/1 75/2/1
f 66/1/1 74/2/1 71/3/1
f 66/1/1 68/4/1 74/2/1
f 76/1/1 64/2/1 65/3/1
f 76/1/1 77/4/1 64/2/1
f 77/1/1 63/2/1 64/3/1
f 77/1/1 78/4/1 63/2/1
f 78/1/1 61/2/1 63/3/1
f 78/1/1 79/4/1 61/2/1
f 79/1/1 62/2/1 61/3/1
f 79/1/1 80/4/1 62/2/1
f 70/1/1 81/2/1 75/3/1
f 70/1/1 82/4/1 81/2/1
f 54/1/1 82/2/1 70/3/1
f 54/1/1 83/4/1 82/2/1
f 55/1/1 83/2/1 54/3/1
f 55/1/1 84/4/1 83/2/1
f 22/1/1 84/2/1 55/3/1
f 22/1/1 85/4/1 84/2/1
f 23/1/1 85/2/1 22/3/1
f 23/1/1 86/4/1 85/2/1
f 24/1/1 86/2/1 23/3/1
f 24/1/1 87/4/1 86/2/1
f 25/1/1 87/2/1 24/3/1
f 25/1/1 88/4/1 87/2/1
f 27/1/1 89/2/1 26/3/1
f 27/1/1 90/4/1 89/2/1
f 28/1/1 90/2/1 27/3/1
f 28/1/1 91/4/1 90/2/1
f 30/1/1 91/2/1 28/3/1
f 30/1/1 92/4/1 91/2/1
f 32/1/1 92/2/1 30/3/1
f 32/1/1 93/4/1 92/2/1
f 60/1/1 93/2/1 32/3/1
f 60/1/1 94/4/1 93/2/1
f 62/1/1 94/2/1 60/3/1
f 62/1/1 95/4/1 94/2/1
f 26/1/1 88/2/1 25/3/1
f 26/1/1 89/4/1 88/2/1
f 80/1/1 95/2/1 62/3/1
f 80/1/1 96/4/1 95/2/1
f 97/1/1 96/2/1 80/3/1
f 97/1/1 98/4/1 96/2/1
f 99/1/1 80/2/1 79/3/1
f 99/1/1 97/4/1 80/2/1
f 100/1/1 79/2/1 78/3/1
f 100/1/1 99/4/1 79/2/1
f 101/1/1 78/2/1 77/3/1
f 101/1/1 100/4/1 78/2/1
f 102/1/1 77/2/1 76/3/1
f 102/1/1 101/4/1 77/2/1
f 103/1/1 101/2/1 102/3/1
f 103/1/1 104/4/1 101/2/1
f 105/1/1 104/2/1 103/3/1
f 105/1/1 106/4/1 104/2/1
f 106/1/1 107/2/1 104/3/1
f 106/1/1 108/4/1 107/2/1
f 104/1/1 100/2/1 101/3/1
f 104/1/1 107/4/1 100/2/1
f 107/1/1 99/2/1 100/3/1
f 107/1/1 109/4/1 99/2/1
f 108/1/1 109/2/1 107/3/1
f 108/1/1 110/4/1 109/2/1
f 110/1/1 111/2/1 109/3/1
f 110/1/1 112/4/1 111/2/1
f 109/1/1 97/2/1 99/3/1
f 109/1/1 111/4/1 97/2/1
f 112/1/1 113/2/1 111/3/1
f 112/1/1 114/4/1 113/2/1
f 111/1/1 98/2/1 97/3/1
f 111/1/1 113/4/1 98/2/1
f 115/5/2 116/6/2 117/7/2
f 115/5/3 105/8/3 116/6/3
f 106/5/4 117/6/4 118/7/4
f 106/5/5 115/8/5 117/6/5
f 119/5/2 118/6/2 120/7/2
f 119/5/3 106/8/3 118/6/3
f 108/5/4 120/6/4 121/7/4
f 108/5/5 119/8/5 120/6/5
f 122/5/2 121/6/2 123/7/2
f 122/5/3 108/8/3 121/6/3
f 110/5/4 123/6/4 124/7/4
f 110/5/5 122/8/5 123/6/5
f 125/5/2 124/6/2 126/7/2
f 125/5/3 110/8/3 124/6/3
f 112/5/4 126/6/4 127/7/4
f 112/5/5 125/8/5 126/6/5
f 128/5/2 127/6/2 129/7/2
f 128/5/3 112/8/3 127/6/3
f 114/5/4 129/6/4 130/7/4
f 114/5/5 128/8/5 129/6/5
f 131/7/6 132/9/6 133/2/6
f 131/7/6 134/6/6 132/9/6
f 135/7/6 133/9/6 136/2/6
f 135/7/6 131/6/6 133/9/6
f 137/7/6 136/9/6 138/2/6
f 137/7/6 135/6/6 136/9/6
f 139/7/6 138/9/6 140/2/6
f 139/7/6 137/6/6 138/9/6
f 141/7/6 140/9/6 142/2/6
f 141/7/6 139/6/6 140/9/6
f 143/7/6 142/9/6 144/2/6
f 143/7/6 141/6/6 142/9/6
f 145/7/6 144/9/6 146/2/6
f 145/7/6 143/6/6 144/9/6
f 147/7/6 146/9/6 148/2/6
f 147/7/6 145/6/6 146/9/6
f 149/7/6 148/9/6 150/2/6
f 149/7/6 147/6/6 148/9/6
f 151/10/7 152/6/7 153/7/7
f 151/10/7 154/11/7 152/6/7
f 155/12/7 156/9/7 157/2/7
f 155/12/7 158/13/7 156/9/7
f 158/12/7 159/9/7 156/2/7
f 158/12/7 160/13/7 159/9/7
f 160/12/7 161/9/7 159/2/7
f 160/12/7 162/13/7 161/9/7
f 162/12/7 163/9/7 161/2/7
f 162/12/7 164/13/7 163/9/7
f 164/12/7 165/9/7 163/2/7
f 164/12/7 166/13/7 165/9/7
f 166/12/7 167/9/7 165/2/7
f 166/12/7 168/13/7 167/9/7
f 168/12/7 169/9/7 167/2/7
f 168/12/7 153/13/7 169/9/7
f 116/12/7 157/9/7 170/2/7
f 116/12/7 155/13/7 157/9/7
f 153/12/7 171/9/7 169/2/7
f 153/12/7 152/13/7 171/9/7
f 172/5/6 135/14/6 137/15/6
f 172/5/8 75/8/8 135/14/8
f 73/5/9 137/14/9 139/15/9
f 73/5/10 172/8/10 137/14/10
f 74/5/9 141/14/9 143/15/9
f 74/5/10 173/8/10 141/14/10
f 130/12/2 174/9/2 175/2/2
f 130/12/2 129/13/2 174/9/2
f 71/5/9 145/14/9 147/15/9
f 71/5/10 176/8/10 145/14/10
f 177/5/6 134/14/6 131/15/6
f 177/5/11 81/8/11 134/14/11
f 173/5/6 139/14/6 141/15/6
f 173/5/8 73/8/8 139/14/8
f 75/5/9 131/14/9 135/15/9
f 75/5/10 177/8/10 131/14/10
f 120/12/2 178/9/2 179/2/2
f 120/12/2 118/13/2 178/9/2
f 180/10/7 168/6/7 166/7/7
f 180/10/7 181/11/7 168/6/7
f 181/10/7 153/6/7 168/7/7
f 181/10/7 151/11/7 153/6/7
f 117/12/2 170/9/2 182/2/2
f 117/12/2 116/13/2 170/9/2
f 95/5/12 183/6/12 184/7/12
f 95/5/12 98/8/12 183/6/12
f 98/5/12 130/6/12 183/7/12
f 98/5/12 114/8/12 130/6/12
f 91/5/12 185/6/12 186/7/12
f 91/5/12 93/8/12 185/6/12
f 89/5/12 186/6/12 187/7/12
f 89/5/12 91/8/12 186/6/12
f 87/5/12 187/6/12 188/7/12
f 87/5/12 89/8/12 187/6/12
f 123/12/2 189/9/2 190/2/2
f 123/12/2 121/13/2 189/9/2
f 124/12/2 190/9/2 191/2/2
f 124/12/2 123/13/2 190/9/2
f 85/5/12 188/6/12 192/7/12
f 85/5/12 87/8/12 188/6/12
f 83/5/12 192/6/12 193/7/12
f 83/5/12 85/8/12 192/6/12
f 81/5/12 193/6/12 194/7/12
f 81/5/12 83/8/12 193/6/12
f 126/12/2 191/9/2 195/2/2
f 126/12/2 124/13/2 191/9/2
f 192/12/12 196/9/12 197/2/12
f 192/12/12 188/13/12 196/9/12
f 183/12/12 175/9/12 198/2/12
f 183/12/12 130/13/12 175/9/12
f 185/12/12 199/9/12 200/2/12
f 185/12/12 184/13/12 199/9/12
f 186/12/12 200/9/12 201/2/12
f 186/12/12 185/13/12 200/9/12
f 187/12/12 201/9/12 202/2/12
f 187/12/12 186/13/12 201/9/12
f 188/12/12 202/9/12 196/2/12
f 188/12/12 187/13/12 202/9/12
f 184/12/12 198/9/12 199/2/12
f 184/12/12 183/13/12 198/9/12
f 127/12/2 195/9/2 203/2/2
f 127/12/2 126/13/2 195/9/2
f 129/12/2 203/9/2 174/2/2
f 129/12/2 127/13/2 203/9/2
f 176/5/6 143/14/6 145/15/6
f 176/5/8 74/8/8 143/14/8
f 204/5/6 147/14/6 149/15/6
f 204/5/8 71/8/8 147/14/8
f 72/5/9 149/14/9 205/15/9
f 72/5/10 204/8/10 149/14/10
f 93/5/12 184/6/12 185/7/12
f 93/5/12 95/8/12 184/6/12
f 193/12/12 197/9/12 206/2/12
f 193/12/12 192/13/12 197/9/12
f 194/12/12 206/9/12 132/2/12
f 194/12/12 193/13/12 206/9/12
f 118/12/2 182/9/2 178/2/2
f 118/12/2 117/13/2 182/9/2
f 41/5/7 180/11/7 207/10/7
f 41/5/7 43/8/7 180/11/7
f 205/7/6 150/9/6 171/2/6
f 205/7/6 149/6/6 150/9/6
f 102/5/7 208/11/7 209/10/7
f 102/5/7 65/8/7 208/11/7
f 105/5/7 209/11/7 210/10/7
f 105/5/7 102/8/7 209/11/7
f 121/12/2 179/9/2 189/2/2
f 121/12/2 120/13/2 179/9/2
f 210/10/7 155/6/7 116/7/7
f 210/10/7 209/11/7 155/6/7
f 65/5/7 211/11/7 208/10/7
f 65/5/7 39/8/7 211/11/7
f 209/10/7 158/6/7 155/7/7
f 209/10/7 208/11/7 158/6/7
f 208/10/7 160/6/7 158/7/7
f 208/10/7 211/11/7 160/6/7
f 39/5/7 212/11/7 211/10/7
f 39/5/7 38/8/7 212/11/7
f 212/10/7 164/6/7 162/7/7
f 212/10/7 207/11/7 164/6/7
f 207/10/7 166/6/7 164/7/7
f 207/10/7 180/11/7 166/6/7
f 211/10/7 162/6/7 160/7/7
f 211/10/7 212/11/7 162/6/7
f 38/5/7 207/11/7 212/10/7
f 38/5/7 41/8/7 207/11/7
f 43/5/7 181/11/7 180/10/7
f 43/5/7 45/8/7 181/11/7
f 45/5/7 151/11/7 181/10/7
f 45/5/7 49/8/7 151/11/7
f 49/5/7 154/11/7 151/10/7
f 49/5/7 72/8/7 154/11/7
f 136/1/13 213/2/13 214/3/13
f 136/1/13 132/4/13 213/2/13
f 214/1/13 206/2/13 215/3/13
f 214/1/13 213/4/13 206/2/13
f 215/1/13 216/2/13 217/3/13
f 215/1/13 206/4/13 216/2/13
f 217/1/13 197/2/13 218/3/13
f 217/1/13 216/4/13 197/2/13
f 218/1/13 219/2/13 220/3/13
f 218/1/13 197/4/13 219/2/13
f 220/1/13 196/2/13 221/3/13
f 220/1/13 219/4/13 196/2/13
f 221/1/13 222/2/13 223/3/13
f 221/1/13 196/4/13 222/2/13
f 223/1/13 202/2/13 224/3/13
f 223/1/13 222/4/13 202/2/13
f 224/1/13 225/2/13 226/3/13
f 224/1/13 202/4/13 225/2/13
f 226/1/13 201/2/13 227/3/13
f 226/1/13 225/4/13 201/2/13
f 227/1/13 228/2/13 229/3/13
f 227/1/13 201/4/13 228/2/13
f 229/1/13 200/2/13 230/3/13
f 229/1/13 228/4/13 200/2/13
f 230/1/13 231/2/13 232/3/13
f 230/1/13 200/4/13 231/2/13
f 232/1/13 199/2/13 233/3/13
f 232/1/13 231/4/13 199/2/13
f 233/1/13 234/2/13 235/3/13
f 233/1/13 199/4/13 234/2/13
f 235/1/13 198/2/13 236/3/13
f 235/1/13 234/4/13 198/2/13
f 236/1/13 237/2/13 238/3/13
f 236/1/13 198/4/13 237/2/13
f 238/1/13 175/2/13 203/3/13
f 238/1/13 237/4/13 175/2/13
f 239/1/13 203/2/13 191/3/13
f 239/1/13 238/4/13 203/2/13
f 240/1/13 191/2/13 189/3/13
f 240/1/13 239/4/13 191/2/13
f 241/1/13 189/2/13 178/3/13
f 241/1/13 240/4/13 189/2/13
f 242/1/13 178/2/13 170/3/13
f 242/1/13 241/4/13 178/2/13
f 157/1/13 241/2/13 242/3/13
f 157/1/13 243/4/13 241/2/13
f 156/1/13 244/2/13 245/3/13
f 156/1/13 246/4/13 244/2/13
f 247/1/13 246/2/13 156/3/13
f 247/1/13 248/4/13 246/2/13
f 249/1/13 250/2/13 159/3/13
f 249/1/13 251/4/13 250/2/13
f 161/1/13 251/2/13 249/3/13
f 161/1/13 252/4/13 251/2/13
f 253/1/13 252/2/13 161/3/13
f 253/1/13 254/4/13 252/2/13
f 163/1/13 254/2/13 253/3/13
f 163/1/13 255/4/13 254/2/13
f 256/1/13 255/2/13 163/3/13
f 256/1/13 257/4/13 255/2/13
f 165/1/13 257/2/13 256/3/13
f 165/1/13 258/4/13 257/2/13
f 159/1/13 248/2/13 247/3/13
f 159/1/13 250/4/13 248/2/13
f 245/1/13 243/2/13 157/3/13
f 245/1/13 244/4/13 243/2/13
f 244/1/13 259/2/13 243/3/13
f 244/1/13 260/4/13 259/2/13
f 259/1/13 239/2/13 240/3/13
f 259/1/13 261/4/13 239/2/13
f 243/1/13 240/2/13 241/3/13
f 243/1/13 259/4/13 240/2/13
f 261/1/13 238/2/13 239/3/13
f 261/1/13 236/4/13 238/2/13
f 262/1/13 236/2/13 261/3/13
f 262/1/13 235/4/13 236/2/13
f 260/1/13 261/2/13 259/3/13
f 260/1/13 262/4/13 261/2/13
f 263/1/13 262/2/13 260/3/13
f 263/1/13 264/4/13 262/2/13
f 246/1/13 260/2/13 244/3/13
f 246/1/13 263/4/13 260/2/13
f 248/1/13 263/2/13 246/3/13
f 248/1/13 265/4/13 263/2/13
f 250/1/13 265/2/13 248/3/13
f 250/1/13 266/4/13 265/2/13
f 265/1/13 264/2/13 263/3/13
f 265/1/13 267/4/13 264/2/13
f 267/1/13 233/2/13 264/3/13
f 267/1/13 232/4/13 233/2/13
f 264/1/13 235/2/13 262/3/13
f 264/1/13 233/4/13 235/2/13
f 268/1/13 232/2/13 267/3/13
f 268/1/13 230/4/13 232/2/13
f 269/1/13 230/2/13 268/3/13
f 269/1/13 229/4/13 230/2/13
f 270/1/13 227/2/13 271/3/13
f 270/1/13 226/4/13 227/2/13
f 272/1/13 226/2/13 270/3/13
f 272/1/13 224/4/13 226/2/13
f 273/1/13 224/2/13 272/3/13
f 273/1/13 223/4/13 224/2/13
f 274/1/13 223/2/13 273/3/13
f 274/1/13 221/4/13 223/2/13
f 275/1/13 221/2/13 274/3/13
f 275/1/13 220/4/13 221/2/13
f 276/1/13 220/2/13 275/3/13
f 276/1/13 218/4/13 220/2/13
f 277/1/13 218/2/13 276/3/13
f 277/1/13 217/4/13 218/2/13
f 278/1/13 217/2/13 277/3/13
f 278/1/13 215/4/13 217/2/13
f 279/1/13 215/2/13 278/3/13
f 279/1/13 214/4/13 215/2/13
f 140/1/13 214/2/13 279/3/13
f 140/1/13 136/4/13 214/2/13
f 144/1/13 279/2/13 280/3/13
f 144/1/13 140/4/13 279/2/13
f 280/1/13 278/2/13 281/3/13
f 280/1/13 279/4/13 278/2/13
f 282/1/13 281/2/13 283/3/13
f 282/1/13 280/4/13 281/2/13
f 284/1/13 283/2/13 169/3/13
f 284/1/13 282/4/13 283/2/13
f 171/1/13 282/2/13 284/3/13
f 171/1/13 148/4/13 282/2/13
f 148/1/13 280/2/13 282/3/13
f 148/1/13 144/4/13 280/2/13
f 283/1/13 285/2/13 286/3/13
f 283/1/13 281/4/13 285/2/13
f 169/1/13 286/2/13 287/3/13
f 169/1/13 283/4/13 286/2/13
f 287/1/13 288/2/13 167/3/13
f 287/1/13 286/4/13 288/2/13
f 167/1/13 289/2/13 290/3/13
f 167/1/13 288/4/13 289/2/13
f 290/1/13 258/2/13 165/3/13
f 290/1/13 289/4/13 258/2/13
f 289/1/13 291/2/13 258/3/13
f 289/1/13 292/4/13 291/2/13
f 258/1/13 293/2/13 257/3/13
f 258/1/13 291/4/13 293/2/13
f 255/1/13 294/2/13 254/3/13
f 255/1/13 295/4/13 294/2/13
f 254/1/13 296/2/13 252/3/13
f 254/1/13 294/4/13 296/2/13
f 252/1/13 297/2/13 251/3/13
f 252/1/13 296/4/13 297/2/13
f 288/1/13 292/2/13 289/3/13
f 288/1/13 298/4/13 292/2/13
f 286/1/13 298/2/13 288/3/13
f 286/1/13 285/4/13 298/2/13
f 281/1/13 277/2/13 285/3/13
f 281/1/13 278/4/13 277/2/13
f 285/1/13 276/2/13 298/3/13
f 285/1/13 277/4/13 276/2/13
f 298/1/13 275/2/13 292/3/13
f 298/1/13 276/4/13 275/2/13
f 292/1/13 274/2/13 291/3/13
f 292/1/13 275/4/13 274/2/13
f 291/1/13 273/2/13 293/3/13
f 291/1/13 274/4/13 273/2/13
f 293/1/13 272/2/13 295/3/13
f 293/1/13 273/4/13 272/2/13
f 295/1/13 270/2/13 294/3/13
f 295/1/13 272/4/13 270/2/13
f 294/1/13 271/2/13 296/3/13
f 294/1/13 270/4/13 271/2/13
f 296/1/13 269/2/13 297/3/13
f 296/1/13 271/4/13 269/2/13
f 297/1/13 268/2/13 266/3/13
f 297/1/13 269/4/13 268/2/13
f 266/1/13 267/2/13 265/3/13
f 266/1/13 268/4/13 267/2/13
f 251/1/13 266/2/13 250/3/13
f 251/1/13 297/4/13 266/2/13
f 257/1/13 295/2/13 255/3/13
f 257/1/13 293/4/13 295/2/13
f 271/1/13 229/2/13 269/3/13
f 271/1/13 227/4/13 229/2/13
