mtllib House.mtl
o Default
v -1.28 0 0.31997600555419925
v 0 0 -0.00002400000113993883
v -1.28 0 -0.00002400000113993883
v 0 0 0.31997600555419925
v 1.28 0 -0.00002400000113993883
v 1.28 0 0.31997600555419925
v 1.28 0 -0.3199920082092285
v 0 0 -0.3199920082092285
v -1.28 0 -0.3199920082092285
v -1.28 0 0.6399440002441407
v 0 0 0.6399440002441407
v -1.28 0 0.9599120330810547
v 0 0 0.9599120330810547
v 1.28 0 0.639911994934082
v 1.28 0 0.9599120330810547
v 0 0 -0.6399599838256836
v -1.28 0 -0.6399599838256836
v 1.28 0 -0.6399599838256836
v 1.28 0 -0.9599279785156251
v 0 0 -0.9599279785156251
v -1.28 0 -0.9599279785156251
v 2.56 0 -0.9599279785156251
v 2.56 0 -0.6399280166625977
v 2.56 0 -0.3199600028991699
v 2.56 0 0.000007999999797903002
v 2.56 0 0.31997600555419925
v 2.56 0 0.6399440002441407
v 2.56 0 0.9599120330810547
v 1.28 0 1.2798799896240234
v 2.56 0 1.2798799896240234
v 1.28 0 1.5998480224609375
v 2.56 0 1.5998480224609375
v 0 0 1.5998480224609375
v 0 0 1.2798480224609374
v -1.28 0 1.5998480224609375
v -1.28 0 1.2798480224609374
v -2.56 0 1.2798799896240234
v -2.56 0 0.9598799896240234
v -2.56 0 1.5998480224609375
v -2.56 0 0.639911994934082
v -2.56 0 0.31994400024414066
v -2.56 0 -0.00002400000113993883
v -2.56 0 -0.3199920082092285
v -2.56 0 -0.6399599838256836
v -2.56 0 -0.9599279785156251
v -1.28 0 -1.279896011352539
v -2.56 0 -1.279896011352539
v -1.28 0 -1.5998640441894532
v -2.56 0 -1.5998640441894532
v 0 0 -1.5998640441894532
v 0 0 -1.279863967895508
v 1.28 0 -1.5998640441894532
v 1.28 0 -1.279863967895508
v 2.56 0 -1.5998640441894532
v 2.56 0 -1.279863967895508
v -2.56 0 1.9198159790039062
v -1.28 0 1.9198159790039062
v 0 0 1.9198159790039062
v 1.28 0 1.9198159790039062
v 2.56 0 1.9198159790039062
v 1.28 0 2.239783935546875
v 2.56 0 2.239783935546875
v 0 0 2.239783935546875
v -1.28 0 2.239783935546875
v -2.56 0 2.239783935546875
v -1.28 0 -1.9198320007324219
v -2.56 0 -1.9198320007324219
v 0 0 -1.9198320007324219
v 1.28 0 -1.9198320007324219
v 2.56 0 -1.9198320007324219
v -1.28 0 -2.2397999572753906
v -2.56 0 -2.2397999572753906
v 1.28 0 -2.2397999572753906
v 0 0 -2.2397999572753906
v 2.56 0 -2.2397999572753906
v -2.56 0 2.5597520446777344
v -1.28 0 2.5597520446777344
v 0 0 2.5597520446777344
v 1.28 0 2.5597520446777344
v 2.56 0 2.5597520446777344
v 3.84 0 -2.240023956298828
v 3.84 0 -1.9200239562988282
v 3.84 0 -1.6000559997558594
v 3.84 0 -1.2800880432128907
v 3.84 0 -0.9601200103759766
v 3.84 0 -0.6401519775390625
v 3.84 0 -0.3201839828491211
v 3.84 0 -0.0002160000056028366
v 3.84 0 0.31972000122070315
v 3.84 0 0.6397200012207032
v 3.84 0 0.9596880340576172
v 3.84 0 1.279655990600586
v 3.84 0 1.5996240234375
v 3.84 0 1.9195919799804688
v 3.84 0 2.2395599365234378
v 3.84 0 2.559528045654297
v 2.56 0 2.879495849609375
v 3.84 0 2.879495849609375
v 1.28 0 2.879495849609375
v 0 0 2.879495849609375
v -1.28 0 2.879495849609375
v -2.56 0 2.879495849609375
v -2.56 0 3.1994641113281252
v -1.28 0 3.1994641113281252
v -2.56 0 3.5194320678710938
v -1.28 0 3.5194320678710938
v 0 0 3.199432067871094
v 0 0 3.5194320678710938
v 1.28 0 3.1994641113281252
v 1.28 0 3.5194320678710938
v 2.56 0 3.199432067871094
v 2.56 0 3.5194320678710938
v 3.84 0 3.199432067871094
v 3.84 0 3.5194320678710938
v 1.28 1.92 -1.280471954345703
v 2.56 1.92 -0.9604399871826172
v 1.28 1.92 -0.9604399871826172
v 2.56 1.92 -1.280471954345703
v -1.28 1.92 1.279751968383789
v 0 1.92 1.5998159790039064
v -1.28 1.92 1.599783935546875
v 0 1.92 1.279751968383789
v 0 1.92 0.6396879959106445
v 1.28 1.92 0.9597519683837891
v 0 1.92 0.9597519683837891
v 1.28 1.92 0.6397200012207032
v 1.28 1.92 1.5998159790039064
v 1.28 1.92 1.279751968383789
v 1.28 1.92 1.9198480224609376
v 0 1.92 1.9198480224609376
v 2.56 1.92 1.2797840118408204
v 2.56 1.92 0.9597200012207031
v 1.28 1.92 0.31968799591064456
v 2.56 1.92 0.6397200012207032
v 2.56 1.92 0.31968799591064456
v 1.28 1.92 -0.0003440000116825104
v 2.56 1.92 -0.0003440000116825104
v 1.28 1.92 -0.3203760147094727
v 2.56 1.92 -0.3203760147094727
v 1.28 1.92 -0.6404080200195312
v 2.56 1.92 -0.6404080200195312
v 1.28 1.92 -1.6005039978027344
v 2.56 1.92 -1.6005039978027344
v 1.28 1.92 -1.9205679321289062
v 2.56 1.92 -1.9205360412597656
v 0 1.92 -1.9205679321289062
v 0 1.92 -1.6005360412597656
v 0 1.92 -1.2805039978027344
v 0 1.92 -0.9604399871826172
v 0 1.92 -0.6404399871826172
v 0 1.92 -0.3204079818725586
v 0 1.92 -0.0003759999945759773
v 0 1.92 0.31968799591064456
v 2.56 1.92 1.599783935546875
v -1.28 1.92 0.9597200012207031
v -1.28 1.92 0.31965600967407226
v -1.28 1.92 0.6396879959106445
v -1.28 1.92 -0.3204079818725586
v -1.28 1.92 -0.0003759999945759773
v -1.28 1.92 -0.6404399871826172
v -1.28 1.92 -1.2805039978027344
v -1.28 1.92 -0.9604720306396485
v -2.56 0.32 1.6
v -2.56 0.32 2.24
v -2.56 0.32 -1.6
v -2.56 0.32 -0.96
v -2.56 0.32 -0.32
v -2.56 0.32 2.88
v -2.56 1.6 2.24
v -2.56 1.6 2.88
v -2.56 1.6 -1.6
v -2.56 1.6 -0.96
v -2.56 1.6 -0.32
v -1.28 1.92 -1.6005360412597656
v -2.56 1.6 1.6
v -2.56 1.92 3.199975891113281
v -1.28 1.92 3.52
v -2.56 1.92 3.52
v -1.28 1.92 3.199975891113281
v 0 1.92 3.52
v 0 1.92 3.199975891113281
v 1.28 1.92 3.52
v 1.28 1.92 3.199975891113281
v 2.56 1.92 3.52
v 2.56 1.92 3.199975891113281
v 3.84 1.92 3.52
v 3.84 1.92 3.199975891113281
v 2.56 1.92 2.87994384765625
v 3.84 1.92 2.88
v 2.56 1.92 2.2398800659179687
v 3.84 1.92 2.559880065917969
v 2.56 1.92 2.559880065917969
v 3.84 1.92 2.2398800659179687
v 3.84 1.92 1.599783935546875
v 3.84 1.92 1.2797840118408204
v 3.84 1.92 0.9597200012207031
v 3.84 1.92 0.6397200012207032
v 3.84 1.92 0.31968799591064456
v 3.84 1.92 -0.0003440000116825104
v 3.84 1.92 -0.3203760147094727
v 3.84 1.92 -0.6404080200195312
v 3.84 1.92 -0.9604399871826172
v 3.84 1.92 -1.280471954345703
v 3.84 1.92 -1.6005039978027344
v 3.84 1.92 1.9198159790039062
v 2.56 1.92 1.9198159790039062
v 3.84 1.92 -1.9205360412597656
v 2.56 1.92 -2.2405679321289065
v 3.84 1.92 -2.2405679321289065
v 1.28 1.92 -2.2405679321289065
v 0 1.92 -2.2405679321289065
v -1.28 1.92 -2.2405679321289065
v -1.28 1.92 -1.9205679321289062
v -2.56 1.92 -1.9205360412597656
v -2.56 1.92 -1.6005360412597656
v -2.56 1.92 -1.2805039978027344
v -2.56 1.92 -0.9604720306396485
v -2.56 1.92 -2.2405679321289065
v -2.56 1.92 -0.6404399871826172
v -2.56 1.92 -0.3204079818725586
v -2.56 1.92 -0.0003759999945759773
v -2.56 1.92 0.31965599060058597
v -2.56 1.92 0.6396879959106445
v -2.56 1.92 0.9597200012207031
v -2.56 1.92 1.279751968383789
v -2.56 1.92 1.599783935546875
v -1.28 1.92 1.9198159790039062
v -2.56 1.92 1.9198159790039062
v -1.28 1.92 2.2398480224609374
v -2.56 1.92 2.2398480224609374
v -2.56 1.92 2.5599119567871096
v -1.28 1.92 2.879912109375
v -2.56 1.92 2.879912109375
v -1.28 1.92 2.5599119567871096
v 0 1.92 2.879912109375
v 0 1.92 2.5599119567871096
v 0 1.92 2.2398800659179687
v 1.28 1.92 2.87994384765625
v 1.28 1.92 2.5599119567871096
v 1.28 1.92 2.2398480224609374
v -1.92 1.92 -2.24
v -1.92 0 -2.24
v -0.64 1.92 -2.24
v -0.64 0 -2.24
v 0.64 1.92 -2.24
v 0.64 0 -2.24
v 1.92 1.92 -2.24
v 1.92 0 -2.24
v 3.2 1.92 -2.24
v 3.2 0 -2.24
v -1.92 0 3.52
v -1.92 1.92 3.52
v -0.64 0 3.52
v -0.64 1.92 3.52
v 0.64 0 3.52
v 0.64 1.92 3.52
v 1.92 0 3.52
v 1.92 1.92 3.52
v 3.2 0 3.52
v 3.2 1.92 3.52
v 3.84 0 2.88
vt 0 0.875
vt 0.5 1
vt 0 1
vt 0.5 0.875
vt 0.5 0.125
vt 0.75 0.25
vt 0.5 0.25
vt 0.75 0.125
vt 0.25 0.25
vt 0.5 0.75
vt 0.25 0.75
vt 0.75 0.875
vt 0.75 0.75
vn 0 1 0
vn 0 -1 0
vn 1 0 0
vn -0.00088739 0.00039999 0.99999953
vn 0.00031257 0 0.99999995
vn 0.00088739 0 0.99999961
vn -0.00031257 0.00039999 0.99999987
vn 0.00003743 0.00028332 0.99999996
vn 0 0 -1
vn 0.00088739 0.0002958 -0.99999956
vn 0 0.0002958 -0.99999996
vn -0.00088739 0 -0.99999961
vn -1 0 0
g Scene
usemtl HouseTileset
f 1/1/1 2/2/1 3/3/1
f 1/1/1 4/4/1 2/2/1
f 4/1/1 5/2/1 2/3/1
f 4/1/1 6/4/1 5/2/1
f 2/1/1 7/2/1 8/3/1
f 2/1/1 5/4/1 7/2/1
f 3/1/1 8/2/1 9/3/1
f 3/1/1 2/4/1 8/2/1
f 10/1/1 4/2/1 1/3/1
f 10/1/1 11/4/1 4/2/1
f 12/1/1 11/2/1 10/3/1
f 12/1/1 13/4/1 11/2/1
f 13/1/1 14/2/1 11/3/1
f 13/1/1 15/4/1 14/2/1
f 11/1/1 6/2/1 4/3/1
f 11/1/1 14/4/1 6/2/1
f 9/1/1 16/2/1 17/3/1
f 9/1/1 8/4/1 16/2/1
f 8/1/1 18/2/1 16/3/1
f 8/1/1 7/4/1 18/2/1
f 16/1/1 19/2/1 20/3/1
f 16/1/1 18/4/1 19/2/1
f 17/1/1 20/2/1 21/3/1
f 17/1/1 16/4/1 20/2/1
f 18/1/1 22/2/1 19/3/1
f 18/1/1 23/4/1 22/2/1
f 7/1/1 23/2/1 18/3/1
f 7/1/1 24/4/1 23/2/1
f 5/1/1 24/2/1 7/3/1
f 5/1/1 25/4/1 24/2/1
f 6/1/1 25/2/1 5/3/1
f 6/1/1 26/4/1 25/2/1
f 14/1/1 26/2/1 6/3/1
f 14/1/1 27/4/1 26/2/1
f 15/1/1 27/2/1 14/3/1
f 15/1/1 28/4/1 27/2/1
f 29/1/1 28/2/1 15/3/1
f 29/1/1 30/4/1 28/2/1
f 31/1/1 30/2/1 29/3/1
f 31/1/1 32/4/1 30/2/1
f 33/1/1 29/2/1 34/3/1
f 33/1/1 31/4/1 29/2/1
f 35/1/1 34/2/1 36/3/1
f 35/1/1 33/4/1 34/2/1
f 36/1/1 13/2/1 12/3/1
f 36/1/1 34/4/1 13/2/1
f 34/1/1 15/2/1 13/3/1
f 34/1/1 29/4/1 15/2/1
f 37/1/1 12/2/1 38/3/1
f 37/1/1 36/4/1 12/2/1
f 39/1/1 36/2/1 37/3/1
f 39/1/1 35/4/1 36/2/1
f 38/1/1 10/2/1 40/3/1
f 38/1/1 12/4/1 10/2/1
f 40/1/1 1/2/1 41/3/1
f 40/1/1 10/4/1 1/2/1
f 41/1/1 3/2/1 42/3/1
f 41/1/1 1/4/1 3/2/1
f 42/1/1 9/2/1 43/3/1
f 42/1/1 3/4/1 9/2/1
f 43/1/1 17/2/1 44/3/1
f 43/1/1 9/4/1 17/2/1
f 44/1/1 21/2/1 45/3/1
f 44/1/1 17/4/1 21/2/1
f 45/1/1 46/2/1 47/3/1
f 45/1/1 21/4/1 46/2/1
f 47/1/1 48/2/1 49/3/1
f 47/1/1 46/4/1 48/2/1
f 46/1/1 50/2/1 48/3/1
f 46/1/1 51/4/1 50/2/1
f 51/1/1 52/2/1 50/3/1
f 51/1/1 53/4/1 52/2/1
f 53/1/1 54/2/1 52/3/1
f 53/1/1 55/4/1 54/2/1
f 19/1/1 55/2/1 53/3/1
f 19/1/1 22/4/1 55/2/1
f 20/1/1 53/2/1 51/3/1
f 20/1/1 19/4/1 53/2/1
f 21/1/1 51/2/1 46/3/1
f 21/1/1 20/4/1 51/2/1
f 56/1/1 35/2/1 39/3/1
f 56/1/1 57/4/1 35/2/1
f 57/1/1 33/2/1 35/3/1
f 57/1/1 58/4/1 33/2/1
f 58/1/1 31/2/1 33/3/1
f 58/1/1 59/4/1 31/2/1
f 59/1/1 32/2/1 31/3/1
f 59/1/1 60/4/1 32/2/1
f 61/1/1 60/2/1 59/3/1
f 61/1/1 62/4/1 60/2/1
f 63/1/1 59/2/1 58/3/1
f 63/1/1 61/4/1 59/2/1
f 64/1/1 58/2/1 57/3/1
f 64/1/1 63/4/1 58/2/1
f 65/1/1 57/2/1 56/3/1
f 65/1/1 64/4/1 57/2/1
f 49/1/1 66/2/1 67/3/1
f 49/1/1 48/4/1 66/2/1
f 48/1/1 68/2/1 66/3/1
f 48/1/1 50/4/1 68/2/1
f 50/1/1 69/2/1 68/3/1
f 50/1/1 52/4/1 69/2/1
f 52/1/1 70/2/1 69/3/1
f 52/1/1 54/4/1 70/2/1
f 67/1/1 71/2/1 72/3/1
f 67/1/1 66/4/1 71/2/1
f 68/1/1 73/2/1 74/3/1
f 68/1/1 69/4/1 73/2/1
f 69/1/1 75/2/1 73/3/1
f 69/1/1 70/4/1 75/2/1
f 66/1/1 74/2/1 71/3/1
f 66/1/1 68/4/1 74/2/1
f 76/1/1 64/2/1 65/3/1
f 76/1/1 77/4/1 64/2/1
f 77/1/1 63/2/1 64/3/1
f 77/1/1 78/4/1 63/2/1
f 78/1/1 61/2/1 63/3/1
f 78/1/1 79/4/1 61/2/1
f 79/1/1 62/2/1 61/3/1
f 79/1/1 80/4/1 62/2/1
f 70/1/1 81/2/1 75/3/1
f 70/1/1 82/4/1 81/2/1
f 54/1/1 82/2/1 70/3/1
f 54/1/1 83/4/1 82/2/1
f 55/1/1 83/2/1 54/3/1
f 55/1/1 84/4/1 83/2/1
f 22/1/1 84/2/1 55/3/1
f 22/1/1 85/4/1 84/2/1
f 23/1/1 85/2/1 22/3/1
f 23/1/1 86/4/1 85/2/1
f 24/1/1 86/2/1 23/3/1
f 24/1/1 87/4/1 86/2/1
f 25/1/1 87/2/1 24/3/1
f 25/1/1 88/4/1 87/2/1
f 27/1/1 89/2/1 26/3/1
f 27/1/1 90/4/1 89/2/1
f 28/1/1 90/2/1 27/3/1
f 28/1/1 91/4/1 90/2/1
f 30/1/1 91/2/1 28/3/1
f 30/1/1 92/4/1 91/2/1
f 32/1/1 92/2/1 30/3/1
f 32/1/1 93/4/1 92/2/1
f 60/1/1 93/2/1 32/3/1
f 60/1/1 94/4/1 93/2/1
f 62/1/1 94/2/1 60/3/1
f 62/1/1 95/4/1 94/2/1
f 26/1/1 88/2/1 25/3/1
f 26/1/1 89/4/1 88/2/1
f 80/1/1 95/2/1 62/3/1
f 80/1/1 96/4/1 95/2/1
f 97/1/1 96/2/1 80/3/1
f 97/1/1 98/4/1 96/2/1
f 99/1/1 80/2/1 79/3/1
f 99/1/1 97/4/1 80/2/1
f 100/1/1 79/2/1 78/3/1
f 100/1/1 99/4/1 79/2/1
f 101/1/1 78/2/1 77/3/1
f 101/1/1 100/4/1 78/2/1
f 102/1/1 77/2/1 76/3/1
f 102/1/1 101/4/1 77/2/1
f 103/1/1 101/2/1 102/3/1
f 103/1/1 104/4/1 101/2/1
f 105/1/1 104/2/1 103/3/1
f 105/1/1 106/4/1 104/2/1
f 106/1/1 107/2/1 104/3/1
f 106/1/1 108/4/1 107/2/1
f 104/1/1 100/2/1 101/3/1
f 104/1/1 107/4/1 100/2/1
f 107/1/1 99/2/1 100/3/1
f 107/1/1 109/4/1 99/2/1
f 108/1/1 109/2/1 107/3/1
f 108/1/1 110/4/1 109/2/1
f 110/1/1 111/2/1 109/3/1
f 110/1/1 112/4/1 111/2/1
f 109/1/1 97/2/1 99/3/1
f 109/1/1 111/4/1 97/2/1
f 112/1/1 113/2/1 111/3/1
f 112/1/1 114/4/1 113/2/1
f 111/1/1 98/2/1 97/3/1
f 111/1/1 113/4/1 98/2/1
f 115/1/2 116/2/2 117/3/2
f 115/1/2 118/4/2 116/2/2
f 119/1/2 120/2/2 121/3/2
f 119/1/2 122/4/2 120/2/2
f 123/1/2 124/2/2 125/3/2
f 123/1/2 126/4/2 124/2/2
f 122/1/2 127/2/2 120/3/2
f 122/1/2 128/4/2 127/2/2
f 120/1/2 129/2/2 130/3/2
f 120/1/2 127/4/2 129/2/2
f 124/1/2 131/2/2 128/3/2
f 124/1/2 132/4/2 131/2/2
f 133/1/2 134/2/2 126/3/2
f 133/1/2 135/4/2 134/2/2
f 136/1/2 135/2/2 133/3/2
f 136/1/2 137/4/2 135/2/2
f 138/1/2 137/2/2 136/3/2
f 138/1/2 139/4/2 137/2/2
f 140/1/2 139/2/2 138/3/2
f 140/1/2 141/4/2 139/2/2
f 142/1/2 118/2/2 115/3/2
f 142/1/2 143/4/2 118/2/2
f 144/1/2 143/2/2 142/3/2
f 144/1/2 145/4/2 143/2/2
f 146/1/2 142/2/2 147/3/2
f 146/1/2 144/4/2 142/2/2
f 147/1/2 115/2/2 148/3/2
f 147/1/2 142/4/2 115/2/2
f 149/1/2 140/2/2 150/3/2
f 149/1/2 117/4/2 140/2/2
f 150/1/2 138/2/2 151/3/2
f 150/1/2 140/4/2 138/2/2
f 151/1/2 136/2/2 152/3/2
f 151/1/2 138/4/2 136/2/2
f 152/1/2 133/2/2 153/3/2
f 152/1/2 136/4/2 133/2/2
f 128/1/2 154/2/2 127/3/2
f 128/1/2 131/4/2 154/2/2
f 155/1/2 122/2/2 119/3/2
f 155/1/2 125/4/2 122/2/2
f 156/1/2 123/2/2 157/3/2
f 156/1/2 153/4/2 123/2/2
f 158/1/2 152/2/2 159/3/2
f 158/1/2 151/4/2 152/2/2
f 159/1/2 153/2/2 156/3/2
f 159/1/2 152/4/2 153/2/2
f 160/1/2 151/2/2 158/3/2
f 160/1/2 150/4/2 151/2/2
f 161/1/2 149/2/2 162/3/2
f 161/1/2 148/4/2 149/2/2
f 65/5/3 163/6/3 164/7/3
f 65/5/3 39/8/3 163/6/3
f 45/5/3 165/6/3 166/7/3
f 45/5/3 49/8/3 165/6/3
f 157/1/2 125/2/2 155/3/2
f 157/1/2 123/4/2 125/2/2
f 43/5/3 166/6/3 167/7/3
f 43/5/3 45/8/3 166/6/3
f 168/9/3 169/10/3 170/11/3
f 168/9/3 164/7/3 169/10/3
f 117/1/2 141/2/2 140/3/2
f 117/1/2 116/4/2 141/2/2
f 162/1/2 150/2/2 160/3/2
f 162/1/2 149/4/2 150/2/2
f 166/9/3 171/10/3 172/11/3
f 166/9/3 165/7/3 171/10/3
f 167/9/3 172/10/3 173/11/3
f 167/9/3 166/7/3 172/10/3
f 102/5/3 164/6/3 168/7/3
f 102/5/3 65/8/3 164/6/3
f 174/1/2 148/2/2 161/3/2
f 174/1/2 147/4/2 148/2/2
f 148/1/2 117/2/2 149/3/2
f 148/1/2 115/4/2 117/2/2
f 164/9/3 175/10/3 169/11/3
f 164/9/3 163/7/3 175/10/3
f 176/1/2 177/2/2 178/3/2
f 176/1/2 179/4/2 177/2/2
f 179/1/2 180/2/2 177/3/2
f 179/1/2 181/4/2 180/2/2
f 181/1/2 182/2/2 180/3/2
f 181/1/2 183/4/2 182/2/2
f 183/1/2 184/2/2 182/3/2
f 183/1/2 185/4/2 184/2/2
f 185/1/2 186/2/2 184/3/2
f 185/1/2 187/4/2 186/2/2
f 188/1/2 187/2/2 185/3/2
f 188/1/2 189/4/2 187/2/2
f 190/1/2 191/2/2 192/3/2
f 190/1/2 193/4/2 191/2/2
f 131/1/2 194/2/2 154/3/2
f 131/1/2 195/4/2 194/2/2
f 134/1/2 196/2/2 132/3/2
f 134/1/2 197/4/2 196/2/2
f 135/1/2 197/2/2 134/3/2
f 135/1/2 198/4/2 197/2/2
f 137/1/2 198/2/2 135/3/2
f 137/1/2 199/4/2 198/2/2
f 139/1/2 199/2/2 137/3/2
f 139/1/2 200/4/2 199/2/2
f 141/1/2 200/2/2 139/3/2
f 141/1/2 201/4/2 200/2/2
f 116/1/2 201/2/2 141/3/2
f 116/1/2 202/4/2 201/2/2
f 118/1/2 202/2/2 116/3/2
f 118/1/2 203/4/2 202/2/2
f 143/1/2 203/2/2 118/3/2
f 143/1/2 204/4/2 203/2/2
f 132/1/2 195/2/2 131/3/2
f 132/1/2 196/4/2 195/2/2
f 154/1/2 205/2/2 206/3/2
f 154/1/2 194/4/2 205/2/2
f 206/1/2 193/2/2 190/3/2
f 206/1/2 205/4/2 193/2/2
f 192/1/2 189/2/2 188/3/2
f 192/1/2 191/4/2 189/2/2
f 145/1/2 204/2/2 143/3/2
f 145/1/2 207/4/2 204/2/2
f 208/1/2 207/2/2 145/3/2
f 208/1/2 209/4/2 207/2/2
f 210/1/2 145/2/2 144/3/2
f 210/1/2 208/4/2 145/2/2
f 211/1/2 144/2/2 146/3/2
f 211/1/2 210/4/2 144/2/2
f 212/1/2 146/2/2 213/3/2
f 212/1/2 211/4/2 146/2/2
f 213/1/2 147/2/2 174/3/2
f 213/1/2 146/4/2 147/2/2
f 214/1/2 174/2/2 215/3/2
f 214/1/2 213/4/2 174/2/2
f 215/1/2 161/2/2 216/3/2
f 215/1/2 174/4/2 161/2/2
f 216/1/2 162/2/2 217/3/2
f 216/1/2 161/4/2 162/2/2
f 218/1/2 213/2/2 214/3/2
f 218/1/2 212/4/2 213/2/2
f 217/1/2 160/2/2 219/3/2
f 217/1/2 162/4/2 160/2/2
f 219/1/2 158/2/2 220/3/2
f 219/1/2 160/4/2 158/2/2
f 220/1/2 159/2/2 221/3/2
f 220/1/2 158/4/2 159/2/2
f 221/1/2 156/2/2 222/3/2
f 221/1/2 159/4/2 156/2/2
f 222/1/2 157/2/2 223/3/2
f 222/1/2 156/4/2 157/2/2
f 223/1/2 155/2/2 224/3/2
f 223/1/2 157/4/2 155/2/2
f 224/1/2 119/2/2 225/3/2
f 224/1/2 155/4/2 119/2/2
f 225/1/2 121/2/2 226/3/2
f 225/1/2 119/4/2 121/2/2
f 226/1/2 227/2/2 228/3/2
f 226/1/2 121/4/2 227/2/2
f 228/1/2 229/2/2 230/3/2
f 228/1/2 227/4/2 229/2/2
f 231/1/2 232/2/2 233/3/2
f 231/1/2 234/4/2 232/2/2
f 233/1/2 179/2/2 176/3/2
f 233/1/2 232/4/2 179/2/2
f 230/1/2 234/2/2 231/3/2
f 230/1/2 229/4/2 234/2/2
f 234/1/2 235/2/2 232/3/2
f 234/1/2 236/4/2 235/2/2
f 229/1/2 236/2/2 234/3/2
f 229/1/2 237/4/2 236/2/2
f 227/1/2 237/2/2 229/3/2
f 227/1/2 130/4/2 237/2/2
f 121/1/2 130/2/2 227/3/2
f 121/1/2 120/4/2 130/2/2
f 232/1/2 181/2/2 179/3/2
f 232/1/2 235/4/2 181/2/2
f 235/1/2 183/2/2 181/3/2
f 235/1/2 238/4/2 183/2/2
f 238/1/2 185/2/2 183/3/2
f 238/1/2 188/4/2 185/2/2
f 239/1/2 188/2/2 238/3/2
f 239/1/2 192/4/2 188/2/2
f 129/1/2 190/2/2 240/3/2
f 129/1/2 206/4/2 190/2/2
f 130/1/2 240/2/2 237/3/2
f 130/1/2 129/4/2 240/2/2
f 237/1/2 239/2/2 236/3/2
f 237/1/2 240/4/2 239/2/2
f 240/1/2 192/2/2 239/3/2
f 240/1/2 190/4/2 192/2/2
f 127/1/2 206/2/2 129/3/2
f 127/1/2 154/4/2 206/2/2
f 236/1/2 238/2/2 235/3/2
f 236/1/2 239/4/2 238/2/2
f 125/1/2 128/2/2 122/3/2
f 125/1/2 124/4/2 128/2/2
f 126/1/2 132/2/2 124/3/2
f 126/1/2 134/4/2 132/2/2
f 153/1/2 126/2/2 123/3/2
f 153/1/2 133/4/2 126/2/2
f 72/5/4 241/12/4 218/4/4
f 72/5/5 242/8/5 241/12/5
f 242/5/6 212/12/6 241/4/6
f 242/5/7 71/8/7 212/12/7
f 71/5/4 243/12/4 212/4/4
f 71/5/5 244/8/5 243/12/5
f 244/5/6 211/12/6 243/4/6
f 244/5/7 74/8/7 211/12/7
f 74/5/4 245/12/4 211/4/4
f 74/5/5 246/8/5 245/12/5
f 246/5/6 210/12/6 245/4/6
f 246/5/7 73/8/7 210/12/7
f 73/5/4 247/12/4 210/4/4
f 73/5/5 248/8/5 247/12/5
f 248/5/6 208/12/6 247/4/6
f 248/5/7 75/8/7 208/12/7
f 75/5/4 249/12/4 208/4/4
f 75/5/5 250/8/5 249/12/5
f 250/5/6 209/12/6 249/4/6
f 250/5/8 81/8/8 209/12/8
f 49/5/3 218/12/3 215/4/3
f 49/5/3 72/8/3 218/12/3
f 41/5/3 220/12/3 222/4/3
f 41/5/3 43/8/3 220/12/3
f 38/5/3 222/12/3 224/4/3
f 38/5/3 41/8/3 222/12/3
f 39/5/3 224/12/3 226/4/3
f 39/5/3 38/8/3 224/12/3
f 105/5/3 233/12/3 178/4/3
f 105/5/3 102/8/3 233/12/3
f 173/10/3 217/12/3 220/4/3
f 173/10/3 172/13/3 217/12/3
f 172/10/3 215/12/3 217/4/3
f 172/10/3 171/13/3 215/12/3
f 169/10/3 226/12/3 230/4/3
f 169/10/3 175/13/3 226/12/3
f 170/10/3 230/12/3 233/4/3
f 170/10/3 169/13/3 230/12/3
f 251/5/9 178/12/9 252/4/9
f 251/5/10 105/8/10 178/12/10
f 106/5/11 252/12/11 177/4/11
f 106/5/12 251/8/12 252/12/12
f 253/5/9 177/12/9 254/4/9
f 253/5/10 106/8/10 177/12/10
f 108/5/11 254/12/11 180/4/11
f 108/5/12 253/8/12 254/12/12
f 255/5/9 180/12/9 256/4/9
f 255/5/10 108/8/10 180/12/10
f 110/5/11 256/12/11 182/4/11
f 110/5/12 255/8/12 256/12/12
f 257/5/9 182/12/9 258/4/9
f 257/5/10 110/8/10 182/12/10
f 112/5/11 258/12/11 184/4/11
f 112/5/12 257/8/12 258/12/12
f 259/5/9 184/12/9 260/4/9
f 259/5/10 112/8/10 184/12/10
f 114/5/11 260/12/11 186/4/11
f 114/5/12 259/8/12 260/12/12
f 98/5/13 186/12/13 189/4/13
f 98/5/13 114/8/13 186/12/13
f 81/5/13 204/12/13 209/4/13
f 81/5/13 83/8/13 204/12/13
f 83/5/13 202/12/13 204/4/13
f 83/5/13 85/8/13 202/12/13
f 85/5/13 200/12/13 202/4/13
f 85/5/13 87/8/13 200/12/13
f 87/5/13 198/12/13 200/4/13
f 87/5/13 89/8/13 198/12/13
f 89/5/13 196/12/13 198/4/13
f 89/5/13 91/8/13 196/12/13
f 91/5/13 194/12/13 196/4/13
f 91/5/13 93/8/13 194/12/13
f 93/5/13 193/12/13 194/4/13
f 93/5/13 95/8/13 193/12/13
f 95/5/13 189/12/13 193/4/13
f 95/5/13 261/8/13 189/12/13
